<?xml version="1.0" encoding="UTF-8"?>
<svg version="1.1" xmlns="http://www.w3.org/2000/svg" width="500" height="500">
<path d="M0 0 C1.31291016 -0.02513672 1.31291016 -0.02513672 2.65234375 -0.05078125 C5.5341446 0.38359068 6.31945088 1.02375465 8.0625 3.3125 C14.57884441 16.59581746 12.93844978 32.05965067 8.375 45.75 C5.47582553 53.3358099 1.35714256 61.10852825 -3.9375 67.3125 C-4.5975 67.3125 -5.2575 67.3125 -5.9375 67.3125 C-6.2675 68.3025 -6.5975 69.2925 -6.9375 70.3125 C-7.5975 70.3125 -8.2575 70.3125 -8.9375 70.3125 C-9.2675 71.3025 -9.5975 72.2925 -9.9375 73.3125 C-11.56640625 74.69921875 -11.56640625 74.69921875 -13.5 76 C-14.14066406 76.43699219 -14.78132812 76.87398438 -15.44140625 77.32421875 C-15.93511719 77.65035156 -16.42882812 77.97648437 -16.9375 78.3125 C-16.31520508 78.42207031 -15.69291016 78.53164062 -15.05175781 78.64453125 C8.8244445 82.95539053 31.34929518 90.26772292 50.0625 106.3125 C50.86042969 106.98925781 51.65835937 107.66601562 52.48046875 108.36328125 C64.75285822 119.07545996 76.93110515 132.01997365 81.0625 148.3125 C81.29296875 152.109375 81.29296875 152.109375 81.25 156.0625 C81.24355469 157.37734375 81.23710937 158.6921875 81.23046875 160.046875 C81.0625 163.3125 81.0625 163.3125 80.0625 165.3125 C73.44850888 167.28262501 69.1545418 165.02107398 63.0625 162.3125 C56.77074191 159.7345583 50.41303796 157.78199935 43.8125 156.1875 C43.17046631 156.02894531 42.52843262 155.87039062 41.86694336 155.70703125 C29.35008645 152.8088073 16.80740753 151.92994764 4 152 C2.92442337 152.00323273 2.92442337 152.00323273 1.82711792 152.00653076 C-20.28858501 152.11246912 -58.79500064 152.89773446 -75.875 168.5625 C-79.77963646 172.95639211 -82.88002879 177.43893927 -83 183.4375 C-81.61612445 187.18210443 -79.58120078 189.32986323 -76.9375 192.3125 C-76.9375 192.9725 -76.9375 193.6325 -76.9375 194.3125 C-76.31875 194.56 -75.7 194.8075 -75.0625 195.0625 C-72.58681313 196.51878639 -71.98624998 197.69062506 -70.9375 200.3125 C-70.2775 200.3125 -69.6175 200.3125 -68.9375 200.3125 C-65.9375 203.77403846 -65.9375 203.77403846 -65.9375 206.3125 C-65.2775 206.3125 -64.6175 206.3125 -63.9375 206.3125 C-48.0574362 228.70338995 -42.75133511 254.69586404 -46.62890625 281.76953125 C-51.27232813 309.05381518 -66.20427773 333.26745463 -88.75 349.5 C-112.91496252 366.36104075 -143.88002854 380.10091481 -173.9375 377.3125 C-176.9375 375.3125 -176.9375 375.3125 -177.44921875 373.1484375 C-177.50722656 372.33632813 -177.56523437 371.52421875 -177.625 370.6875 C-177.72361328 369.46160156 -177.72361328 369.46160156 -177.82421875 368.2109375 C-177.86160156 367.58445312 -177.89898437 366.95796875 -177.9375 366.3125 C-178.56914062 366.84617187 -179.20078125 367.37984375 -179.8515625 367.9296875 C-186.75676414 373.68070558 -193.88731034 378.9701379 -201.24584961 384.12036133 C-203.01438535 385.36668259 -204.76648154 386.63435772 -206.51953125 387.90234375 C-213.65304592 392.99431352 -219.93119777 397.33208138 -228.9375 396.3125 C-230.44028294 393.30693412 -230.07611565 390.21554034 -230.06689453 386.91967773 C-230.06864685 386.15665344 -230.07039917 385.39362915 -230.07220459 384.60748291 C-230.07662402 382.07033037 -230.07368045 379.53324708 -230.0703125 376.99609375 C-230.07098655 375.22363776 -230.07195743 373.45118187 -230.07321167 371.6787262 C-230.0746896 367.94865038 -230.07253486 364.21859844 -230.06787109 360.48852539 C-230.06223585 355.75512199 -230.0654122 351.02177608 -230.07144356 346.2883749 C-230.07510013 342.61700528 -230.07388645 338.94564871 -230.07131577 335.27427864 C-230.07065722 333.53273575 -230.07143654 331.79119161 -230.07379532 330.04965019 C-230.10453795 300.91344764 -226.35191197 275.26060475 -214.9375 248.3125 C-214.02988045 246.1549763 -213.12233478 243.99742151 -212.21484375 241.83984375 C-210.29132173 237.27601255 -208.36213576 232.7146515 -206.42578125 228.15625 C-205.77343506 226.61904297 -205.77343506 226.61904297 -205.10791016 225.05078125 C-204.18478011 222.89103436 -203.24288554 220.74170999 -202.29296875 218.59375 C-199.51435961 211.86743392 -197.48094986 205.2664084 -196.4375 198.0625 C-196.3142334 197.24531494 -196.1909668 196.42812988 -196.06396484 195.58618164 C-195.00051486 187.96433967 -194.462526 180.3224369 -193.91455078 172.65112305 C-191.87764542 144.16255054 -191.87764542 144.16255054 -186.9375 130.3125 C-186.545625 129.20132813 -186.15375 128.09015625 -185.75 126.9453125 C-179.17099335 109.93511767 -168.59282849 98.01706728 -154.9375 86.3125 C-152.73360293 84.56585443 -152.73360293 84.56585443 -152.8828125 82.46484375 C-152.94210938 81.73394531 -153.00140625 81.00304687 -153.0625 80.25 C-153.22183889 71.19665418 -148.03593261 63.66648598 -141.9375 57.3125 C-133.67546239 50.47913447 -124.66042787 46.23285156 -114.4375 43.25 C-113.55803711 42.99178467 -112.67857422 42.73356934 -111.77246094 42.4675293 C-98.9488174 38.79217731 -86.03378059 37.02035904 -72.81518555 35.43896484 C-64.42807731 34.42084957 -56.21382741 33.00154641 -47.9375 31.3125 C-46.74447266 31.13847656 -46.74447266 31.13847656 -45.52734375 30.9609375 C-35.60808598 29.36643999 -25.62446709 23.56868125 -17.9375 17.3125 C-17.2775 17.3125 -16.6175 17.3125 -15.9375 17.3125 C-15.69 16.77625 -15.4425 16.24 -15.1875 15.6875 C-13.63978724 12.74684576 -11.79327934 10.06805114 -9.9375 7.3125 C-9.133125 5.95125 -9.133125 5.95125 -8.3125 4.5625 C-5.88617082 0.59214315 -4.54022542 0.02000099 0 0 Z " fill="#273139" transform="translate(327.9375,30.6875)"/>
<path d="M0 0 C1.875 0.125 1.875 0.125 4 1 C9.00155627 12.97555727 5.7966109 27.22205304 1.25244141 38.92529297 C-4.28464005 52.03549749 -11.94151203 61.03662383 -25 67 C-34.46752956 70.71623533 -44.17088672 72.59629113 -54.125 74.4375 C-55.72025789 74.7377022 -57.3153901 75.03857293 -58.91040039 75.34008789 C-61.31571958 75.79454617 -63.72115595 76.24825746 -66.12727356 76.69847107 C-70.98659741 77.60943514 -75.83334005 78.56562127 -80.67578125 79.5625 C-81.82868652 79.79654541 -82.9815918 80.03059082 -84.16943359 80.27172852 C-86.2614958 80.69792407 -88.35187434 81.1325239 -90.43994141 81.57788086 C-101.60013294 83.81276858 -114.4117475 85.05033276 -124.32421875 78.453125 C-129.17655516 74.51550192 -131.45626405 71.35865755 -132.2421875 65.05859375 C-132.57614035 59.88232454 -131.4810171 57.00316966 -128 53 C-117.12902882 42.55638886 -102.26511866 40.90789509 -88 39 C-82.89100478 38.30512622 -77.78403886 37.59613333 -72.67779541 36.88134766 C-70.44484035 36.57217017 -68.21064789 36.27378012 -65.97607422 35.9765625 C-58.50936311 34.95958206 -51.16080665 33.70429236 -43.8203125 31.98828125 C-42.78648941 31.74701256 -42.78648941 31.74701256 -41.73178101 31.50086975 C-31.78054039 29.07935896 -23.19822197 25.09947715 -15 19 C-13.96875 18.2575 -12.9375 17.515 -11.875 16.75 C-6.89689207 11.98833155 -2.93759094 6.23518076 0 0 Z " fill="#EC6F3A" transform="translate(326,38)"/>
<path d="M0 0 C2.49286825 2.32328537 4.8932231 4.72541708 7.296875 7.140625 C7.93109375 7.71683594 8.5653125 8.29304688 9.21875 8.88671875 C16.87247098 15.96804607 23.21100807 25.55716304 27.296875 35.140625 C26.966875 36.130625 26.636875 37.120625 26.296875 38.140625 C25.77480469 37.71652344 25.25273437 37.29242188 24.71484375 36.85546875 C14.60506609 28.79951632 4.39199265 22.77596059 -7.703125 18.140625 C-8.66089844 17.77066406 -9.61867188 17.40070313 -10.60546875 17.01953125 C-29.37407277 10.54499268 -50.53979877 8.93904085 -70.265625 8.890625 C-70.9481131 8.88828857 -71.6306012 8.88595215 -72.33377075 8.88354492 C-84.90217433 8.86756175 -97.30657549 9.76274589 -109.80102539 11.07324219 C-116.48240463 11.77230666 -122.98424069 12.31763183 -129.703125 12.140625 C-130.05246094 11.02042969 -130.40179688 9.90023437 -130.76171875 8.74609375 C-131.22133905 7.27343278 -131.6809753 5.80077679 -132.140625 4.328125 C-132.48577148 3.22114258 -132.48577148 3.22114258 -132.83789062 2.09179688 C-133.7718434 -0.89955911 -134.71211604 -3.88634812 -135.703125 -6.859375 C-135.82078676 -8.52305758 -135.87821583 -10.19158303 -135.890625 -11.859375 C-135.90480469 -12.725625 -135.91898438 -13.591875 -135.93359375 -14.484375 C-135.703125 -16.859375 -135.703125 -16.859375 -133.703125 -19.859375 C-93.58242959 -37.69079518 -32.93036264 -28.31591692 0 0 Z " fill="#F4E8D0" transform="translate(372.703125,142.859375)"/>
<path d="M0 0 C0.72703125 0.14453613 1.4540625 0.28907227 2.203125 0.43798828 C9.63881491 1.96956401 16.5949082 4.10634657 23.5 7.25 C28.73851359 9.61539496 32.29320297 10.86140333 38 10 C39.485 9.01 39.485 9.01 41 8 C40.67 9.65 40.34 11.3 40 13 C33.27812791 14.75353185 29.18668548 12.75065337 23 10 C16.70824191 7.4220583 10.35053796 5.46949935 3.75 3.875 C3.10796631 3.71644531 2.46593262 3.55789062 1.80444336 3.39453125 C-10.71241355 0.4963073 -23.25509247 -0.38255236 -36.0625 -0.3125 C-37.13807663 -0.30926727 -37.13807663 -0.30926727 -38.23538208 -0.30596924 C-60.35108501 -0.20003088 -98.85750064 0.58523446 -115.9375 16.25 C-119.84213646 20.64389211 -122.94252879 25.12643927 -123.0625 31.125 C-121.67862445 34.86960443 -119.64370078 37.01736323 -117 40 C-117 40.66 -117 41.32 -117 42 C-116.071875 42.37125 -116.071875 42.37125 -115.125 42.75 C-112.64931313 44.20628639 -112.04874998 45.37812506 -111 48 C-110.34 48 -109.68 48 -109 48 C-106 51.46153846 -106 51.46153846 -106 54 C-105.34 54 -104.68 54 -104 54 C-88.1199362 76.39088995 -82.81383511 102.38336404 -86.69140625 129.45703125 C-91.33482813 156.74131518 -106.26677773 180.95495463 -128.8125 197.1875 C-152.97746252 214.04854075 -183.94252854 227.78841481 -214 225 C-217 223 -217 223 -217.51171875 220.8359375 C-217.56972656 220.02382813 -217.62773437 219.21171875 -217.6875 218.375 C-217.78611328 217.14910156 -217.78611328 217.14910156 -217.88671875 215.8984375 C-217.94279297 214.95871094 -217.94279297 214.95871094 -218 214 C-218.63164062 214.53367187 -219.26328125 215.06734375 -219.9140625 215.6171875 C-226.81926414 221.36820558 -233.94981034 226.6576379 -241.30834961 231.80786133 C-243.07688535 233.05418259 -244.82898154 234.32185772 -246.58203125 235.58984375 C-253.71554592 240.68181352 -259.99369777 245.01958138 -269 244 C-270.53634851 240.92730298 -270.12967825 237.70798882 -270.11352539 234.33740234 C-270.11367142 233.54707108 -270.11381744 232.75673981 -270.1139679 231.94245911 C-270.11326983 229.32359089 -270.10548239 226.70479333 -270.09765625 224.0859375 C-270.09579169 222.27275634 -270.09436797 220.45957467 -270.09336853 218.64639282 C-270.08954632 213.86896377 -270.07971855 209.09156501 -270.06866455 204.31414795 C-270.05844407 199.44120697 -270.05386954 194.5682611 -270.04882812 189.6953125 C-270.03809603 180.13019501 -270.02102314 170.56510002 -270 161 C-269.67 161 -269.34 161 -269 161 C-268.67 187.4 -268.34 213.8 -268 241 C-262.41587677 241.2014556 -262.41587677 241.2014556 -258.14453125 239.0859375 C-257.10171997 238.44978516 -257.10171997 238.44978516 -256.0378418 237.80078125 C-255.303479 237.33027344 -254.56911621 236.85976563 -253.8125 236.375 C-252.64424683 235.64216797 -252.64424683 235.64216797 -251.45239258 234.89453125 C-234.52722123 224.10353016 -219.05892154 211.54737529 -204.2578125 198.03125 C-202.86053911 196.77418744 -201.44206491 195.53975782 -199.9921875 194.34375 C-181.81640229 179.33217031 -166.80315191 155.78168052 -161 133 C-160.64550781 131.80632812 -160.29101562 130.61265625 -159.92578125 129.3828125 C-156.63130988 116.02242982 -157.02828083 99.03240872 -164 87 C-164.50789063 86.0821875 -165.01578125 85.164375 -165.5390625 84.21875 C-171.57063656 74.49962593 -179.97803598 70.69710128 -190.83154297 68.13330078 C-202.18857996 65.74920011 -211.97598896 66.81975782 -222.91796875 70.22265625 C-226 71 -226 71 -229 70 C-214.651855 60.84160957 -200.66291835 56.50215369 -183.453125 59.6484375 C-170.6090143 63.17604537 -162.37814597 71.53035282 -154.75 82.125 C-146.09109673 99.01759254 -147.46397922 118.43666702 -153 136 C-162.51835325 164.08083574 -184.19799917 187.85723154 -207 206 C-211.60629594 209.48709367 -211.60629594 209.48709367 -215 214 C-215.16669318 217.54171978 -215.16669318 217.54171978 -215 221 C-213.19825103 222.80174897 -210.62669648 222.25854804 -208.1875 222.3125 C-176.08403087 222.01916881 -140.60919208 206.66393588 -118 184 C-98.04725033 163.63632413 -88.39097272 137.18190984 -88.51269531 108.92822266 C-89.2116248 83.30782551 -98.94092579 61.43015703 -117.375 43.6875 C-118.14312012 42.98608887 -118.14312012 42.98608887 -118.92675781 42.27050781 C-123.04496473 38.39824557 -125.74076169 34.47025835 -126.171875 28.69921875 C-124.68394956 21.60401874 -120.47276593 16.61914209 -115 12 C-109.77640376 8.80827842 -104.26417829 6.9797354 -98.375 5.4375 C-97.19006958 5.12063232 -97.19006958 5.12063232 -95.98120117 4.79736328 C-93.6574774 4.18418776 -91.33018141 3.58810572 -89 3 C-87.85402344 2.70996094 -86.70804688 2.41992188 -85.52734375 2.12109375 C-57.73074629 -4.32987844 -28.0364359 -5.68125874 0 0 Z " fill="#ECECE9" transform="translate(368,183)"/>
<path d="M0 0 C0.81871582 0.16097168 1.63743164 0.32194336 2.48095703 0.48779297 C19.87488106 4.08117954 35.68952663 11.51707839 50 22 C48 23 48 23 46.16772461 22.53149414 C45.44077393 22.26457764 44.71382324 21.99766113 43.96484375 21.72265625 C7.49822553 8.91675059 -32.39263218 10.36289331 -69.21484375 20.921875 C-77.20867725 23.10294669 -85.92216778 24.84861069 -93.9375 21.8125 C-98.05275534 19.37694071 -100.93996848 16.86767458 -103.3125 12.6875 C-104.24819177 9.0297958 -104.12786669 5.77206749 -104 2 C-70.92767812 -4.61022162 -33.20831007 -6.63375684 0 0 Z " fill="#F1E1C6" transform="translate(343,161)"/>
<path d="M0 0 C6.34807358 0.50726615 11.43254349 2.08319169 17.25 4.625 C18.08192871 4.98327881 18.91385742 5.34155762 19.77099609 5.71069336 C44.88628987 16.7391174 67.91753498 36.16408795 78.23046875 62.09375 C79.0588164 65.22212895 79.30020673 67.95436896 79.3125 71.1875 C79.32925781 72.21230469 79.34601563 73.23710937 79.36328125 74.29296875 C79 77 79 77 77.6875 78.828125 C75.37121393 80.43665699 73.29819809 80.58454686 70.5234375 80.484375 C66.76127021 79.76222524 63.50742686 78.09616075 60.04516602 76.49536133 C46.64001452 70.53112368 31.50672876 68.37475365 17 67 C17 66.67 17 66.34 17 66 C5.615 65.01 5.615 65.01 -6 64 C-6 63.67 -6 63.34 -6 63 C0.435 62.505 0.435 62.505 7 62 C7 61.67 7 61.34 7 61 C25.57097331 60.06846565 42.32113164 62.10704388 60 68 C40.8766474 55.58433263 21.77537805 48.48931538 -1 46 C2 44 2 44 5 43 C5.391875 42.46375 5.78375 41.9275 6.1875 41.375 C8 40 8 40 11.4375 40.125 C31.41665878 43.54583957 54.28689392 51.28689392 69 66 C65.80539501 55.63664028 60.0510507 47.50629709 52.55688477 39.83349609 C49 36.17900061 49 36.17900061 49 34 C48.43410156 33.7525 47.86820312 33.505 47.28515625 33.25 C44.63075337 31.79801894 42.68829218 30.02318398 40.4375 28 C28.70220744 18.28587265 14.56340852 12.1360951 0 8 C0.99 7.01 1.98 6.02 3 5 C2.67 4.34 2.34 3.68 2 3 C3.32 3 4.64 3 6 3 C4.02 2.34 2.04 1.68 0 1 C0 0.67 0 0.34 0 0 Z M13 62 C13 62.66 13 63.32 13 64 C15.64 64 18.28 64 21 64 C17.77208445 61.8480563 16.71599191 61.79913557 13 62 Z " fill="#2B3237" transform="translate(330,114)"/>
<path d="M0 0 C1.31291016 -0.02513672 1.31291016 -0.02513672 2.65234375 -0.05078125 C5.5341446 0.38359068 6.31945088 1.02375465 8.0625 3.3125 C14.57884441 16.59581746 12.93844978 32.05965067 8.375 45.75 C5.47582553 53.3358099 1.35714256 61.10852825 -3.9375 67.3125 C-4.5975 67.3125 -5.2575 67.3125 -5.9375 67.3125 C-6.4325 68.7975 -6.4325 68.7975 -6.9375 70.3125 C-7.5975 70.3125 -8.2575 70.3125 -8.9375 70.3125 C-9.4325 71.7975 -9.4325 71.7975 -9.9375 73.3125 C-11.64453125 74.953125 -11.64453125 74.953125 -13.75 76.5625 C-14.43707031 77.10390625 -15.12414062 77.6453125 -15.83203125 78.203125 C-17.9375 79.3125 -17.9375 79.3125 -20.19921875 78.984375 C-20.77285156 78.76265625 -21.34648437 78.5409375 -21.9375 78.3125 C-21.37160156 78.05597656 -20.80570312 77.79945312 -20.22265625 77.53515625 C-17.85089095 76.29716979 -15.90962759 75.12804236 -13.9375 73.3125 C-13.36915829 71.05224876 -13.37388594 69.01411793 -13.3203125 66.6875 C-12.83612709 63.68357417 -11.70939904 62.36967116 -9.75 60.0625 C0.4210108 48.01183628 3.41727015 32.87358199 3.36328125 17.46875 C3.04278967 14.10566949 2.42273405 11.40600888 1.0625 8.3125 C0.0725 7.9825 -0.9175 7.6525 -1.9375 7.3125 C-2.18628906 8.19164062 -2.43507813 9.07078125 -2.69140625 9.9765625 C-7.04285696 21.62590076 -18.34616108 29.72964116 -29.125 35.0625 C-47.35944147 42.77010788 -68.16728701 44.4772197 -87.63500977 46.77929688 C-98.84989287 48.15066078 -109.61247 49.99861619 -120.01171875 54.54296875 C-121.9375 55.3125 -121.9375 55.3125 -123.9375 55.3125 C-123.9375 54.6525 -123.9375 53.9925 -123.9375 53.3125 C-124.5975 52.9825 -125.2575 52.6525 -125.9375 52.3125 C-125.6075 51.6525 -125.2775 50.9925 -124.9375 50.3125 C-126.4225 50.8075 -126.4225 50.8075 -127.9375 51.3125 C-128.5975 50.6525 -129.2575 49.9925 -129.9375 49.3125 C-111.52145565 41.08261937 -92.67880006 37.81365047 -72.81665039 35.43945312 C-64.42914223 34.42044124 -56.21434886 33.00165283 -47.9375 31.3125 C-46.74447266 31.13847656 -46.74447266 31.13847656 -45.52734375 30.9609375 C-35.60808598 29.36643999 -25.62446709 23.56868125 -17.9375 17.3125 C-17.2775 17.3125 -16.6175 17.3125 -15.9375 17.3125 C-15.69 16.77625 -15.4425 16.24 -15.1875 15.6875 C-13.63978724 12.74684576 -11.79327934 10.06805114 -9.9375 7.3125 C-9.40125 6.405 -8.865 5.4975 -8.3125 4.5625 C-5.88617082 0.59214315 -4.54022542 0.02000099 0 0 Z " fill="#2F3031" transform="translate(327.9375,30.6875)"/>
<path d="M0 0 C1.875 0.125 1.875 0.125 4 1 C9.00155627 12.97555727 5.7966109 27.22205304 1.25244141 38.92529297 C-4.28464005 52.03549749 -11.94151203 61.03662383 -25 67 C-34.74631072 70.85111986 -44.80780204 72.71939927 -55.0625 74.625 C-56.64923036 74.92633752 -58.23581996 75.22841722 -59.82226562 75.53125 C-62.85544421 76.10891181 -65.89001466 76.67799878 -68.92626953 77.23925781 C-71.43238847 77.7030438 -73.93034251 78.18731373 -76.42919922 78.69042969 C-77.40002441 78.88282227 -78.37084961 79.07521484 -79.37109375 79.2734375 C-80.18376709 79.44020996 -80.99644043 79.60698242 -81.83374023 79.77880859 C-84.15417483 80.01574241 -85.79104519 79.70426788 -88 79 C-87.030625 78.8040625 -86.06125 78.608125 -85.0625 78.40625 C-60.78360804 73.13700565 -37.64424732 58.11445361 -23.34765625 37.6328125 C-19.95089509 32.22219548 -17.53407479 26.66970217 -15.37109375 20.6640625 C-13.73378026 17.48272973 -11.82754423 16.15064728 -9 14 C-7.02048352 11.58992329 -7.02048352 11.58992329 -5.3125 9 C-4.73113281 8.154375 -4.14976562 7.30875 -3.55078125 6.4375 C-2.21272538 4.33435929 -1.05887785 2.25337553 0 0 Z " fill="#EEAB48" transform="translate(326,38)"/>
<path d="M0 0 C11.75955422 10.09505849 18.73474149 21.45852763 20.42382812 36.98486328 C22.23649549 62.90715393 11.09096474 86.88909073 -4.8125 106.8125 C-5.30105469 107.42738281 -5.78960937 108.04226563 -6.29296875 108.67578125 C-7.8125 109.8125 -7.8125 109.8125 -10 109.5 C-10.598125 109.273125 -11.19625 109.04625 -11.8125 108.8125 C-9.76995683 104.4917356 -7.66517567 100.48891734 -4.9375 96.5625 C1.3361664 87.31042632 5.29956113 77.5766358 8.1875 66.8125 C8.54457031 65.61496094 8.90164062 64.41742188 9.26953125 63.18359375 C12.55038048 49.82153177 12.1588485 32.84426898 5.1875 20.8125 C4.67960937 19.8946875 4.17171875 18.976875 3.6484375 18.03125 C-2.38313656 8.31212593 -10.79053598 4.50960128 -21.64404297 1.94580078 C-33.00107996 -0.43829989 -42.78848896 0.63225782 -53.73046875 4.03515625 C-56.8125 4.8125 -56.8125 4.8125 -59.8125 3.8125 C-42.10142233 -7.49244319 -18.53144716 -13.62140561 0 0 Z " fill="#F0EFE8" transform="translate(198.8125,249.1875)"/>
<path d="M0 0 C4.86599472 2.43299736 8.04034979 6.30575325 9.8984375 11.38671875 C10.74423546 17.0402104 10.71158658 21.70018732 8.2109375 26.88671875 C4.37346194 31.03534097 0.33789859 34.83102351 -5.3984375 35.7578125 C-10.89423046 35.90658397 -14.81911271 35.31252955 -19.33984375 32.06640625 C-23.51728679 28.0834783 -26.30875849 23.14662002 -26.6640625 17.32421875 C-25.78840099 11.19458817 -23.76566114 6.55110486 -19.0390625 2.44921875 C-13.48146438 -1.45292461 -6.51003304 -1.899768 0 0 Z " fill="#D6A854" transform="translate(222.1015625,134.61328125)"/>
<path d="M0 0 C-1.63412443 1.70840281 -2.86906094 2.93453047 -5 4 C-9.45082706 13.79929991 -12.11131216 24.64886859 -15 35 C-14.01 35.66 -13.02 36.32 -12 37 C-22.89 37.495 -22.89 37.495 -34 38 C-36.4375 30.1875 -36.4375 30.1875 -37.20092773 27.73901367 C-38.11291156 24.8183937 -39.03241678 21.90274965 -40 19 C-40.11766176 17.33631742 -40.17509083 15.66779197 -40.1875 14 C-40.20167969 13.13375 -40.21585938 12.2675 -40.23046875 11.375 C-40 9 -40 9 -38 6 C-31.44686541 3.08749574 -23.79219184 2.39452692 -16.75 1.3125 C-15.89873535 1.18101563 -15.0474707 1.04953125 -14.17041016 0.9140625 C-9.39145983 0.21921414 -4.82830739 -0.13701953 0 0 Z " fill="#ECAB47" transform="translate(277,117)"/>
<path d="M0 0 C0.86625 -0.00773437 1.7325 -0.01546875 2.625 -0.0234375 C5.46386765 0.4528199 6.2710351 1.11686705 8 3.375 C14.51634441 16.65831746 12.87594978 32.12215067 8.3125 45.8125 C5.41332553 53.3983099 1.29464256 61.17102825 -4 67.375 C-4.66 67.375 -5.32 67.375 -6 67.375 C-6.33 68.365 -6.66 69.355 -7 70.375 C-7.66 70.375 -8.32 70.375 -9 70.375 C-9.33 71.365 -9.66 72.355 -10 73.375 C-11.70703125 75.015625 -11.70703125 75.015625 -13.8125 76.625 C-14.49957031 77.16640625 -15.18664062 77.7078125 -15.89453125 78.265625 C-18 79.375 -18 79.375 -20.26171875 79.046875 C-20.83535156 78.82515625 -21.40898437 78.6034375 -22 78.375 C-21.43410156 78.11847656 -20.86820312 77.86195312 -20.28515625 77.59765625 C-17.91339095 76.35966979 -15.97212759 75.19054236 -14 73.375 C-13.43165829 71.11474876 -13.43638594 69.07661793 -13.3828125 66.75 C-12.89862709 63.74607417 -11.77189904 62.43217116 -9.8125 60.125 C0.3585108 48.07433628 3.35477015 32.93608199 3.30078125 17.53125 C2.98541659 14.22196893 2.17224025 11.47606583 1 8.375 C-0.9914056 7.99366701 -2.99279077 7.66174418 -5 7.375 C-6.96822886 9.34322886 -6.66248381 12.72308709 -7 15.375 C-8.98 14.715 -10.96 14.055 -13 13.375 C-12.2368139 11.76718107 -11.46412942 10.16386862 -10.6875 8.5625 C-10.25824219 7.66917969 -9.82898438 6.77585937 -9.38671875 5.85546875 C-6.84966718 1.31736243 -5.2920972 -0.04725087 0 0 Z " fill="#4A5155" transform="translate(328,30.625)"/>
<path d="M0 0 C-0.2475 0.70125 -0.495 1.4025 -0.75 2.125 C-1.26080139 5.13427079 -1.26080139 5.13427079 0.5 8.0625 C5.5952274 14.0493922 12.81777015 16.28318066 20 19 C12.03312787 23.15814817 2.6823882 24.55517398 -6.1484375 22.5 C-11.15052169 20.57780171 -14.68961045 17.3087816 -17.3125 12.6875 C-18.24819177 9.0297958 -18.12786669 5.77206749 -18 2 C-11.93184478 0.77100654 -6.20104812 -0.27560214 0 0 Z " fill="#EDAB48" transform="translate(257,161)"/>
<path d="M0 0 C6.34807358 0.50726615 11.43254349 2.08319169 17.25 4.625 C18.08192871 4.98327881 18.91385742 5.34155762 19.77099609 5.71069336 C44.14882527 16.41528792 65.59106853 34.66971386 77 59 C78.46017635 62.88002835 79.24415266 65.84940473 79 70 C77.1284362 67.1926543 76.12095336 64.82216678 74.9375 61.6875 C68.7005811 46.61343069 58.08206015 32.81154511 45 23 C44.01 23 43.02 23 42 23 C41.505 25.475 41.505 25.475 41 28 C40.37996094 27.5875 39.75992188 27.175 39.12109375 26.75 C26.59501173 18.58160881 14.36174475 12.23722398 0 8 C0.99 7.01 1.98 6.02 3 5 C2.67 4.34 2.34 3.68 2 3 C3.32 3 4.64 3 6 3 C4.02 2.34 2.04 1.68 0 1 C0 0.67 0 0.34 0 0 Z " fill="#293035" transform="translate(330,114)"/>
<path d="M0 0 C0.33 0 0.66 0 1 0 C1.33 26.4 1.66 52.8 2 80 C7.58412323 80.2014556 7.58412323 80.2014556 11.85546875 78.0859375 C12.89828003 77.44978516 12.89828003 77.44978516 13.9621582 76.80078125 C14.696521 76.33027344 15.43088379 75.85976563 16.1875 75.375 C17.35575317 74.64216797 17.35575317 74.64216797 18.54760742 73.89453125 C35.47277877 63.10353016 50.94107846 50.54737529 65.7421875 37.03125 C67.13946089 35.77418744 68.55793509 34.53975782 70.0078125 33.34375 C75.56383019 28.75497426 80.01861266 23.43374659 84.58203125 17.890625 C86.32497428 15.80697743 88.02943325 13.85927228 90 12 C90.495 12.495 90.495 12.495 91 13 C91.99 13.495 91.99 13.495 93 14 C87.56761851 26.46588594 73.32283072 36.70185524 63 45 C58.39438298 48.48779142 58.39438298 48.48779142 55 53 C54.6947378 57.65275976 54.6947378 57.65275976 56 62 C55.01 62 54.02 62 53 62 C52.505 57.545 52.505 57.545 52 53 C51.36835938 53.53367187 50.73671875 54.06734375 50.0859375 54.6171875 C43.18073586 60.36820558 36.05018966 65.6576379 28.69165039 70.80786133 C26.92311465 72.05418259 25.17101846 73.32185772 23.41796875 74.58984375 C16.28445408 79.68181352 10.00630223 84.01958138 1 83 C-0.53634851 79.92730298 -0.12967825 76.70798882 -0.11352539 73.33740234 C-0.11367142 72.54707108 -0.11381744 71.75673981 -0.1139679 70.94245911 C-0.11326983 68.32359089 -0.10548239 65.70479333 -0.09765625 63.0859375 C-0.09579169 61.27275634 -0.09436797 59.45957467 -0.09336853 57.64639282 C-0.08954632 52.86896377 -0.07971855 48.09156501 -0.06866455 43.31414795 C-0.05844407 38.44120697 -0.05386954 33.5682611 -0.04882812 28.6953125 C-0.03809603 19.13019501 -0.02102314 9.56510002 0 0 Z " fill="#E7E7E3" transform="translate(98,344)"/>
<path d="M0 0 C3.41147754 1.70573877 5.38347495 3.03500427 7.4375 6.25 C8.49438955 11.41701558 7.97304268 15.47556646 5.125 19.9375 C1.78692585 23.1773955 -1.44128541 23.34828992 -6 23.28125 C-9.24380523 22.82508989 -10.8266525 21.36511346 -13 19 C-15.24840805 15.03851915 -15.55234064 11.49763095 -15 7 C-11.25850791 0.78272504 -7.11379898 -0.95203258 0 0 Z " fill="#2C3337" transform="translate(221,139)"/>
<path d="M0 0 C0 0.99 0 1.98 0 3 C-0.99 3.33 -1.98 3.66 -3 4 C1.95 4.495 1.95 4.495 7 5 C7 5.33 7 5.66 7 6 C5.72769531 6.07347656 5.72769531 6.07347656 4.4296875 6.1484375 C-4.12866014 6.6939146 -12.53573242 7.64255778 -21 9 C-21.93328125 9.14872559 -22.8665625 9.29745117 -23.828125 9.45068359 C-27.01143072 9.96107228 -30.19340808 10.47903899 -33.375 11 C-34.90906494 11.24907104 -34.90906494 11.24907104 -36.47412109 11.50317383 C-42.06472721 12.43311362 -47.52428197 13.53632358 -53 15 C-53 13.68 -53 12.36 -53 11 C-53.99 11.33 -54.98 11.66 -56 12 C-57.39439664 12.06665376 -58.79169875 12.08538199 -60.1875 12.0625 C-62.0746875 12.0315625 -62.0746875 12.0315625 -64 12 C-64 11.67 -64 11.34 -64 11 C-63.1342334 10.83395264 -62.2684668 10.66790527 -61.37646484 10.49682617 C-58.09221663 9.86618227 -54.80823591 9.23417722 -51.52441406 8.60131836 C-50.11663761 8.33028462 -48.70876348 8.05975762 -47.30078125 7.78979492 C-38.88305645 6.17539556 -30.48856428 4.49425479 -22.11547852 2.66015625 C-14.75741836 1.10101554 -7.54176073 -0.34280731 0 0 Z " fill="#2E312D" transform="translate(291,109)"/>
<path d="M0 0 C-0.86625 0.39445313 -0.86625 0.39445313 -1.75 0.796875 C-8.62748854 4.47442096 -14.59632683 10.50824587 -16.9375 18 C-17.01672798 21.80294296 -15.99509817 23.79359222 -14 27 C-13.01834406 28.01801357 -12.02408568 29.0246803 -11 30 C-11 30.66 -11 31.32 -11 32 C-10.38125 32.2475 -9.7625 32.495 -9.125 32.75 C-6.64931313 34.20628639 -6.04874998 35.37812506 -5 38 C-4.34 38 -3.68 38 -3 38 C0 41.46153846 0 41.46153846 0 44 C0.66 44 1.32 44 2 44 C18.21902499 66.86882524 23.54498371 93.90312051 19 121.5 C18.6886781 123.0047225 18.3665149 124.50776076 18 126 C17.67 126 17.34 126 17 126 C17.03927612 124.53699463 17.03927612 124.53699463 17.0793457 123.04443359 C17.8364103 92.06401678 16.30859989 64.46174162 -5 40 C-7.5744468 37.35362743 -10.20020461 34.76026785 -12.92675781 32.27050781 C-17.04496473 28.39824557 -19.74076169 24.47025835 -20.171875 18.69921875 C-18.15534892 9.08337677 -10.15969618 -0.45154205 0 0 Z " fill="#EAEAE7" transform="translate(262,193)"/>
<path d="M0 0 C0 0.33 0 0.66 0 1 C-0.6297876 1.08040527 -1.2595752 1.16081055 -1.90844727 1.24365234 C-4.79387553 1.61523041 -7.67816279 1.99504931 -10.5625 2.375 C-11.55314453 2.50132813 -12.54378906 2.62765625 -13.56445312 2.7578125 C-18.88281019 3.46457091 -23.89142386 4.35207221 -29 6 C-29 6.99 -29 7.98 -29 9 C-32 11 -32 11 -35 11 C-35.33 11.66 -35.66 12.32 -36 13 C-38.6366526 14.12707409 -41.24483845 15.15219747 -43.9375 16.125 C-45.0502832 16.54072266 -45.0502832 16.54072266 -46.18554688 16.96484375 C-51.71455511 19 -51.71455511 19 -54 19 C-54 18.34 -54 17.68 -54 17 C-54.66 16.67 -55.32 16.34 -56 16 C-55.67 15.34 -55.34 14.68 -55 14 C-55.99 14.33 -56.98 14.66 -58 15 C-58.66 14.34 -59.32 13.68 -60 13 C-41.27977023 4.63418303 -20.60815334 -0.45795896 0 0 Z " fill="#6A6E72" transform="translate(258,67)"/>
<path d="M0 0 C0.97066406 -0.02578125 1.94132812 -0.0515625 2.94140625 -0.078125 C4.17697266 0.08429688 4.17697266 0.08429688 5.4375 0.25 C6.0975 1.24 6.7575 2.23 7.4375 3.25 C8.4275 3.91 9.4175 4.57 10.4375 5.25 C9.62925781 5.26417969 8.82101563 5.27835938 7.98828125 5.29296875 C0.98964381 5.32496984 0.98964381 5.32496984 -4.75 8.75 C-5.6471875 9.9875 -5.6471875 9.9875 -6.5625 11.25 C-6.8925 11.58 -7.2225 11.91 -7.5625 12.25 C-7.79442865 13.76469448 -7.97465238 15.28754562 -8.125 16.8125 C-8.20878906 17.63878906 -8.29257813 18.46507812 -8.37890625 19.31640625 C-8.43949219 19.95449219 -8.50007812 20.59257812 -8.5625 21.25 C-11.46850261 22.50664978 -13.35854584 23.25 -16.5625 23.25 C-17.00307584 16.37212156 -17.25735195 11.72732727 -12.5625 6.25 C-11.5415625 4.8578125 -11.5415625 4.8578125 -10.5 3.4375 C-7.42424773 -0.03512353 -4.41583379 0.07055926 0 0 Z " fill="#E1AC51" transform="translate(214.5625,133.75)"/>
<path d="M0 0 C2.16527131 0.00541441 4.33033998 -0.00000649 6.49560547 -0.00634766 C7.887533 -0.00568766 9.27946042 -0.00440813 10.67138672 -0.00244141 C12.53802979 -0.00074951 12.53802979 -0.00074951 14.44238281 0.00097656 C17.35353455 0.11407658 19.94719602 0.45463291 22.77294922 1.13037109 C22.77294922 1.79037109 22.77294922 2.45037109 22.77294922 3.13037109 C18.81294922 3.13037109 14.85294922 3.13037109 10.77294922 3.13037109 C10.77294922 3.79037109 10.77294922 4.45037109 10.77294922 5.13037109 C7.41559785 6.24948822 4.89089536 6.24402696 1.35498047 6.22802734 C0.10136719 6.22480469 -1.15224609 6.22158203 -2.44384766 6.21826172 C-3.75417969 6.20988281 -5.06451172 6.20150391 -6.41455078 6.19287109 C-7.74983559 6.18785427 -9.08512219 6.18329168 -10.42041016 6.17919922 C-13.68933551 6.16739804 -16.95817069 6.15093407 -20.22705078 6.13037109 C-19.89705078 4.81037109 -19.56705078 3.49037109 -19.22705078 2.13037109 C-21.20705078 2.13037109 -23.18705078 2.13037109 -25.22705078 2.13037109 C-25.22705078 1.80037109 -25.22705078 1.47037109 -25.22705078 1.13037109 C-16.81574669 0.14542511 -8.45592849 -0.02520685 0 0 Z " fill="#353B3F" transform="translate(299.22705078125,150.86962890625)"/>
<path d="M0 0 C0.33 0 0.66 0 1 0 C1.33 26.4 1.66 52.8 2 80 C7.58412323 80.2014556 7.58412323 80.2014556 11.85546875 78.0859375 C12.5513208 77.66103027 13.24717285 77.23612305 13.96411133 76.79833984 C14.69782959 76.3286377 15.43154785 75.85893555 16.1875 75.375 C16.96053467 74.89369629 17.73356934 74.41239258 18.5300293 73.91650391 C25.52613042 69.48008907 32.1740521 64.5854374 38.7175293 59.50927734 C39.84155151 58.65003662 39.84155151 58.65003662 40.98828125 57.7734375 C41.64352783 57.26216309 42.29877441 56.75088867 42.97387695 56.22412109 C45.30416329 54.81623391 47.32195181 54.38893178 50 54 C45.8154556 58.50384698 41.13307041 61.95570058 36.125 65.5 C34.95904297 66.33337891 34.95904297 66.33337891 33.76953125 67.18359375 C32.23595429 68.27900587 30.7005877 69.3719174 29.16333008 70.4621582 C27.79204889 71.43695791 26.42424396 72.41668178 25.0612793 73.40307617 C10.33405421 84.05668538 10.33405421 84.05668538 1 83 C-0.53634851 79.92730298 -0.12967825 76.70798882 -0.11352539 73.33740234 C-0.11367142 72.54707108 -0.11381744 71.75673981 -0.1139679 70.94245911 C-0.11326983 68.32359089 -0.10548239 65.70479333 -0.09765625 63.0859375 C-0.09579169 61.27275634 -0.09436797 59.45957467 -0.09336853 57.64639282 C-0.08954632 52.86896377 -0.07971855 48.09156501 -0.06866455 43.31414795 C-0.05844407 38.44120697 -0.05386954 33.5682611 -0.04882812 28.6953125 C-0.03809603 19.13019501 -0.02102314 9.56510002 0 0 Z " fill="#CFCFCC" transform="translate(98,344)"/>
<path d="M0 0 C3.41147754 1.70573877 5.38347495 3.03500427 7.4375 6.25 C8.23586515 10.1531185 7.78279091 13.08604544 7 17 C6.34 17.33 5.68 17.66 5 18 C5.33 16.68 5.66 15.36 6 14 C5.34 14 4.68 14 4 14 C3.67 14.66 3.34 15.32 3 16 C3 15.34 3 14.68 3 14 C2.34 14 1.68 14 1 14 C1.66 15.65 2.32 17.3 3 19 C1.0625 18.3125 1.0625 18.3125 -1 17 C-1.75 14.375 -1.75 14.375 -2 12 C-1.01 11.34 -0.02 10.68 1 10 C1.66 9.01 2.32 8.02 3 7 C3 7.99 3 8.98 3 10 C3.66 10 4.32 10 5 10 C4.67 8.02 4.34 6.04 4 4 C3.34 4 2.68 4 2 4 C1.67 4.99 1.34 5.98 1 7 C-0.875 6.6875 -0.875 6.6875 -3 6 C-3.66 5.01 -4.32 4.02 -5 3 C-5.12375 3.886875 -5.2475 4.77375 -5.375 5.6875 C-5.94412736 8.70387502 -6.76614436 11.20326054 -8 14 C-12.875 12.125 -12.875 12.125 -14 11 C-13.84761884 6.96189914 -13.58066425 4.68623957 -10.9375 1.5625 C-7.20846942 -0.4210269 -4.09061522 -0.79250667 0 0 Z " fill="#282F33" transform="translate(221,139)"/>
<path d="M0 0 C1.1875 3.0625 1.1875 3.0625 2 6 C2.99 5.67 3.98 5.34 5 5 C7.807347 4.93235308 10.59897771 5.00212855 13.40625 5.0625 C16.1166664 5.12404608 16.1166664 5.12404608 19 4 C19.33 4.66 19.66 5.32 20 6 C19.01 6.495 19.01 6.495 18 7 C18 7.99 18 8.98 18 10 C12.74733773 13.31747091 8.04678583 13.97528804 2 13 C-1.17841442 11.82955279 -3.65981631 10.46849664 -6 8 C-7 4.1875 -7 4.1875 -7 1 C-3.375 -1.125 -3.375 -1.125 0 0 Z " fill="#EBA845" transform="translate(207,157)"/>
<path d="M0 0 C3.9791034 -0.05868218 7.95809353 -0.0938239 11.9375 -0.125 C13.05447266 -0.14175781 14.17144531 -0.15851563 15.32226562 -0.17578125 C21.86476555 -0.21415368 27.72611893 0.05670556 34 2 C34.66 2.99 35.32 3.98 36 5 C35.34 6.32 34.68 7.64 34 9 C22.12 7.515 22.12 7.515 10 6 C10 5.67 10 5.34 10 5 C2.41 4.34 -5.18 3.68 -13 3 C-13 2.67 -13 2.34 -13 2 C-6.565 1.505 -6.565 1.505 0 1 C0 0.67 0 0.34 0 0 Z M6 1 C6 1.66 6 2.32 6 3 C8.64 3 11.28 3 14 3 C10.77208445 0.8480563 9.71599191 0.79913557 6 1 Z " fill="#2E363C" transform="translate(337,175)"/>
<path d="M0 0 C10.89761308 -0.2071352 21.27133239 -0.15729044 32 2 C32 2.33 32 2.66 32 3 C26.06 3 20.12 3 14 3 C14.33 3.66 14.66 4.32 15 5 C17.58605332 5.4683265 17.58605332 5.4683265 20.5625 5.625 C21.57441406 5.69976562 22.58632813 5.77453125 23.62890625 5.8515625 C24.80259766 5.92503906 24.80259766 5.92503906 26 6 C26 6.33 26 6.66 26 7 C13.13 7 0.26 7 -13 7 C-11.68 6.34 -10.36 5.68 -9 5 C-9 4.34 -9 3.68 -9 3 C-4.545 2.505 -4.545 2.505 0 2 C0 1.34 0 0.68 0 0 Z M18 3 C20.64 3.33 23.28 3.66 26 4 C26 4.33 26 4.66 26 5 C23.36 5 20.72 5 18 5 C18 4.34 18 3.68 18 3 Z " fill="#20262A" transform="translate(325,173)"/>
<path d="M0 0 C1.47906892 -0.02689216 2.95827483 -0.04634621 4.4375 -0.0625 C5.26121094 -0.07410156 6.08492188 -0.08570312 6.93359375 -0.09765625 C9 0 9 0 10 1 C11.41396973 1.13595863 12.83176684 1.23243845 14.25 1.3125 C20.79450629 1.8815875 26.80226877 3.91142286 33 6 C32.38125 6.28875 31.7625 6.5775 31.125 6.875 C28.86674235 7.93720042 28.86674235 7.93720042 27 10 C20.12590103 10.16788504 13.07008223 8.34098761 6.375 6.9375 C5.46621094 6.75123047 4.55742187 6.56496094 3.62109375 6.37304688 C1.4130997 5.91982704 -0.79385124 5.46210307 -3 5 C-3 4.67 -3 4.34 -3 4 C-1.865625 3.87625 -0.73125 3.7525 0.4375 3.625 C1.613125 3.41875 2.78875 3.2125 4 3 C4.33 2.34 4.66 1.68 5 1 C4.01 1.33 3.02 1.66 2 2 C1.34 1.34 0.68 0.68 0 0 Z " fill="#262D32" transform="translate(305,111)"/>
<path d="M0 0 C4.88103436 0.58648087 8.55993579 2.71942872 12.75 5.125 C13.81951904 5.73504883 13.81951904 5.73504883 14.91064453 6.35742188 C20.3184711 9.4954638 25.27557727 12.89180632 30 17 C30.79535156 17.67546875 31.59070313 18.3509375 32.41015625 19.046875 C44.94625178 29.97478517 56.39863804 42.61061282 61 59 C61.125 61.875 61.125 61.875 61 64 C59.1284362 61.1926543 58.12095336 58.82216678 56.9375 55.6875 C46.26006718 29.88110989 24.69407399 12.76523944 0 1 C0 0.67 0 0.34 0 0 Z " fill="#E7E7E4" transform="translate(348,120)"/>
<path d="M0 0 C6.61085476 0.48969295 11.94977014 2.33442742 18 5 C18 5.66 18 6.32 18 7 C18.66 7.33 19.32 7.66 20 8 C20 9.65 20 11.3 20 13 C12.74601342 12.52432875 6.73187777 10.70533406 0 8 C0.99 7.01 1.98 6.02 3 5 C2.67 4.34 2.34 3.68 2 3 C3.32 3 4.64 3 6 3 C4.02 2.34 2.04 1.68 0 1 C0 0.67 0 0.34 0 0 Z " fill="#2C3338" transform="translate(330,114)"/>
<path d="M0 0 C0.33 0.99 0.66 1.98 1 3 C-0.36328125 5.48046875 -0.36328125 5.48046875 -2.3125 8.1875 C-2.94800781 9.08855469 -3.58351563 9.98960938 -4.23828125 10.91796875 C-4.81964844 11.60503906 -5.40101563 12.29210937 -6 13 C-6.66 13 -7.32 13 -8 13 C-8.33 13.99 -8.66 14.98 -9 16 C-9.66 16 -10.32 16 -11 16 C-11.33 16.99 -11.66 17.98 -12 19 C-13.70703125 20.640625 -13.70703125 20.640625 -15.8125 22.25 C-16.49957031 22.79140625 -17.18664062 23.3328125 -17.89453125 23.890625 C-20 25 -20 25 -22.26171875 24.671875 C-23.12216797 24.33929688 -23.12216797 24.33929688 -24 24 C-23.43410156 23.74347656 -22.86820312 23.48695312 -22.28515625 23.22265625 C-19.90642065 21.98103152 -17.97183463 20.82858168 -16 19 C-15.37603649 16.63062504 -15.31416802 14.53758106 -15.2734375 12.09375 C-15 10 -15 10 -12.4375 7.4375 C-11.2309375 6.7259375 -11.2309375 6.7259375 -10 6 C-9.67 6.66 -9.34 7.32 -9 8 C-7.35 7.67 -5.7 7.34 -4 7 C-3.67 6.01 -3.34 5.02 -3 4 C-3.66 4 -4.32 4 -5 4 C-4.67 3.01 -4.34 2.02 -4 1 C-3.01 1.33 -2.02 1.66 -1 2 C-0.67 1.34 -0.34 0.68 0 0 Z " fill="#6E7374" transform="translate(330,85)"/>
<path d="M0 0 C0.99 0.99 1.98 1.98 3 3 C3.33 2.34 3.66 1.68 4 1 C4.99 1 5.98 1 7 1 C5.89131683 3.21736634 4.50559539 5.03617993 3 7 C2.34 6.67 1.68 6.34 1 6 C1.33 6.99 1.66 7.98 2 9 C2.66 8.67 3.32 8.34 4 8 C3.34 9.98 2.68 11.96 2 14 C0.68 14 -0.64 14 -2 14 C-2.33 14.66 -2.66 15.32 -3 16 C-2.34 16 -1.68 16 -1 16 C-1.33 17.32 -1.66 18.64 -2 20 C-3.65 20.33 -5.3 20.66 -7 21 C-8.1328125 19.23046875 -8.1328125 19.23046875 -9 17 C-8.2421875 15.17578125 -8.2421875 15.17578125 -6.875 13.3125 C-3.97287657 9.09050674 -1.95652856 4.72190132 0 0 Z " fill="#272D30" transform="translate(328,73)"/>
<path d="M0 0 C0.66 0.33 1.32 0.66 2 1 C1.34 1.66 0.68 2.32 0 3 C0.33 3.66 0.66 4.32 1 5 C1 5.99 1 6.98 1 8 C-0.32 7.67 -1.64 7.34 -3 7 C-2.67 7.33 -2.34 7.66 -2 8 C-2 8.66 -2 9.32 -2 10 C-3.55575978 10.84584998 -5.1199612 11.67618399 -6.6875 12.5 C-7.55761719 12.9640625 -8.42773438 13.428125 -9.32421875 13.90625 C-12.11788829 15.04818792 -14.01629113 15.21504208 -17 15 C-17 12 -17 12 -15 10 C-15.33 9.34 -15.66 8.68 -16 8 C-13.37964982 6.63610475 -10.75443001 5.28367827 -8.125 3.9375 C-7.37863281 3.54755859 -6.63226563 3.15761719 -5.86328125 2.75585938 C-4.79013672 2.20961914 -4.79013672 2.20961914 -3.6953125 1.65234375 C-3.03547363 1.31195068 -2.37563477 0.97155762 -1.69580078 0.62084961 C-1.13618652 0.41596924 -0.57657227 0.21108887 0 0 Z " fill="#252E37" transform="translate(305,52)"/>
<path d="M0 0 C0.69287109 0.00451172 1.38574219 0.00902344 2.09960938 0.01367188 C3.79561068 0.02536844 5.49156703 0.04330076 7.1875 0.0625 C6.8575 1.3825 6.5275 2.7025 6.1875 4.0625 C20.3775 4.0625 34.5675 4.0625 49.1875 4.0625 C49.1875 4.3925 49.1875 4.7225 49.1875 5.0625 C43.76560729 5.20744359 38.34365308 5.34973076 32.92163086 5.48974609 C31.08404746 5.53755053 29.24648154 5.58603245 27.40893555 5.63525391 C16.33185717 5.93144863 5.26892112 6.13903356 -5.8125 6.0625 C-4.4925 4.7425 -3.1725 3.4225 -1.8125 2.0625 C-5.4425 2.0625 -9.0725 2.0625 -12.8125 2.0625 C-12.8125 1.7325 -12.8125 1.4025 -12.8125 1.0625 C-8.52952469 0.00630997 -4.38264354 -0.05452092 0 0 Z " fill="#161A1B" transform="translate(272.8125,152.9375)"/>
<path d="M0 0 C2.0625 0.4375 2.0625 0.4375 4 1 C2.40641284 3.65597861 1.27528856 4.87242725 -1.5625 6.1875 C-13.84214221 9.08996089 -13.84214221 9.08996089 -19 6 C-18.67 5.34 -18.34 4.68 -18 4 C-18.99 3.67 -19.98 3.34 -21 3 C-14.19848162 1.57613073 -7.94221106 0.88802885 -1 1 C-0.67 0.67 -0.34 0.34 0 0 Z " fill="#222D33" transform="translate(268,66)"/>
<path d="M0 0 C0.99 0.33 1.98 0.66 3 1 C2.01 1.66 1.02 2.32 0 3 C1.32 4.32 2.64 5.64 4 7 C-12.70842825 11.40774487 -12.70842825 11.40774487 -21 12 C-17.55549263 9.70366176 -15.06187717 9.45983515 -11 9 C-11.33 7.02 -11.66 5.04 -12 3 C-11.38511719 2.95101562 -10.77023437 2.90203125 -10.13671875 2.8515625 C-9.32847656 2.77679688 -8.52023437 2.70203125 -7.6875 2.625 C-6.88699219 2.55539063 -6.08648437 2.48578125 -5.26171875 2.4140625 C-2.72775559 2.10435574 -2.72775559 2.10435574 0 0 Z " fill="#2D2A2B" transform="translate(289,61)"/>
<path d="M0 0 C0.66 0 1.32 0 2 0 C2 0.99 2 1.98 2 3 C2.99 3.33 3.98 3.66 5 4 C4.67 4.33 4.34 4.66 4 5 C3.92794489 6.68608966 3.91613932 8.37500659 3.9375 10.0625 C3.95103516 11.44115234 3.95103516 11.44115234 3.96484375 12.84765625 C3.97644531 13.55792969 3.98804688 14.26820313 4 15 C1.09399739 16.25664978 -0.79604584 17 -4 17 C-4.68844492 6.25260979 -4.68844492 6.25260979 -2.125 2.3125 C-1.42375 1.549375 -0.7225 0.78625 0 0 Z " fill="#ECA845" transform="translate(202,140)"/>
<path d="M0 0 C-3.56310762 2.37540508 -6.98128839 3.04177299 -11.09765625 3.91015625 C-11.88772568 4.08252304 -12.6777951 4.25488983 -13.49180603 4.43247986 C-16.01410599 4.98185827 -18.53814545 5.52264803 -21.0625 6.0625 C-23.59012199 6.60720266 -26.11732336 7.15372643 -28.64390564 7.70323181 C-30.21579698 8.04467606 -31.78834473 8.38311481 -33.36158752 8.71827698 C-37.28837832 9.53302335 -37.28837832 9.53302335 -41 11 C-43.3329866 11.04022391 -45.66706666 11.04320247 -48 11 C-44.41334366 8.60889577 -40.79671722 7.67020203 -36.6875 6.5625 C-35.88731445 6.34368164 -35.08712891 6.12486328 -34.26269531 5.89941406 C-11.50980005 -0.230196 -11.50980005 -0.230196 0 0 Z " fill="#E0E0DC" transform="translate(306,182)"/>
<path d="M0 0 C0.33 0 0.66 0 1 0 C2.25816829 13.60685711 -2.41499004 24.70106295 -8.7265625 36.49609375 C-10.33537438 38.39607097 -11.58058531 38.63759822 -14 39 C-13.46890625 37.98421875 -12.9378125 36.9684375 -12.390625 35.921875 C-6.36152098 24.23852614 -1.95833419 13.08991797 0 0 Z " fill="#EAEAE6" transform="translate(278,311)"/>
<path d="M0 0 C2.10176579 0.01843008 4.20309282 0.02050782 6.30493164 0.02026367 C17.43891815 0.06073831 17.43891815 0.06073831 22.27563477 1.20581055 C21.94563477 1.86581055 21.61563477 2.52581055 21.27563477 3.20581055 C20.24792969 3.20057373 19.22022461 3.19533691 18.16137695 3.18994141 C14.29224544 3.17163042 10.42311763 3.16028469 6.55395508 3.15087891 C4.88988599 3.14589763 3.22582117 3.13911018 1.56176758 3.13037109 C-7.92086496 3.08187388 -17.28345603 3.16580974 -26.72436523 4.20581055 C-18.9889119 -0.95115834 -8.96547939 -0.08141785 0 0 Z " fill="#F4F4F1" transform="translate(329.724365234375,179.794189453125)"/>
<path d="M0 0 C0.33 0.66 0.66 1.32 1 2 C0.22265625 4.1640625 0.22265625 4.1640625 -0.9375 6.625 C-1.31777344 7.44226563 -1.69804687 8.25953125 -2.08984375 9.1015625 C-2.39019531 9.72804688 -2.69054687 10.35453125 -3 11 C-3.33 11 -3.66 11 -4 11 C-4.33 9.35 -4.66 7.7 -5 6 C-7.32727163 7.55151442 -8.79701313 8.59402625 -10.0625 11.125 C-10.371875 11.74375 -10.68125 12.3625 -11 13 C-11.99 13.33 -12.98 13.66 -14 14 C-14.33 13.34 -14.66 12.68 -15 12 C-16.32 12 -17.64 12 -19 12 C-19 12.66 -19 13.32 -19 14 C-21.64 13.67 -24.28 13.34 -27 13 C-24.03802775 11.02535184 -21.75306687 10.21314046 -18.375 9.1875 C-11.61504132 6.99973155 -5.88904637 3.92603092 0 0 Z " fill="#DA7143" transform="translate(310,58)"/>
<path d="M0 0 C-0.66 0 -1.32 0 -2 0 C-2.33 0.66 -2.66 1.32 -3 2 C-5.64860427 2.59355614 -8.29197322 2.74209269 -11 3 C-11 4.65 -11 6.3 -11 8 C-12.55966218 8.508783 -14.12289241 9.00663469 -15.6875 9.5 C-16.55761719 9.7784375 -17.42773438 10.056875 -18.32421875 10.34375 C-20.99391677 10.99850805 -23.26396684 11.11831495 -26 11 C-23 9 -23 9 -20 9 C-19.34 7.68 -18.68 6.36 -18 5 C-18.66 5.185625 -19.32 5.37125 -20 5.5625 C-23.89330114 6.13027308 -27.11375479 5.59281707 -31 5 C-31 4.67 -31 4.34 -31 4 C-29.81664062 3.80664062 -28.63328125 3.61328125 -27.4140625 3.4140625 C-25.81765857 3.15134388 -24.22130781 2.88830203 -22.625 2.625 C-21.80314209 2.4899707 -20.98128418 2.35494141 -20.13452148 2.21582031 C-15.00348366 1.36326307 -9.91525717 0.41413395 -4.84765625 -0.765625 C-3 -1 -3 -1 0 0 Z " fill="#4E555A" transform="translate(289,62)"/>
<path d="M0 0 C-1 2 -1 2 -3.44921875 3 C-16.32692814 6.97671122 -28.54236053 8.36814211 -42 8 C-42.33 7.34 -42.66 6.68 -43 6 C-42.15574463 5.93268677 -42.15574463 5.93268677 -41.29443359 5.86401367 C-27.86599043 4.76527311 -13.09907508 -0.35402906 0 0 Z " fill="#F4F3F0" transform="translate(196,400)"/>
<path d="M0 0 C1 3 1 3 0 6 C-1.78143619 7.58130649 -3.62378598 9.09489444 -5.5 10.5625 C-9.30626077 13.31675319 -9.30626077 13.31675319 -12 17 C-12.3052622 21.65275976 -12.3052622 21.65275976 -11 26 C-11.99 26 -12.98 26 -14 26 C-14.33 23.03 -14.66 20.06 -15 17 C-16.65 17.33 -18.3 17.66 -20 18 C-16.64938306 14.55208747 -13.19115491 11.4393798 -9.4375 8.4375 C-6.10263245 5.7686809 -2.96510782 3.07673541 0 0 Z " fill="#DEDFDD" transform="translate(165,380)"/>
<path d="M0 0 C0.33 0 0.66 0 1 0 C2.66463463 7.71362868 3.32083712 15.05433999 3.25 22.9375 C3.24613281 23.98421875 3.24226563 25.0309375 3.23828125 26.109375 C3.15830485 33.24504693 2.70806019 40.04575494 1 47 C0.67 47 0.34 47 0 47 C0 31.49 0 15.98 0 0 Z " fill="#FBFBF6" transform="translate(279,272)"/>
<path d="M0 0 C1.1875 3.0625 1.1875 3.0625 2 6 C3.32 6 4.64 6 6 6 C6 9 6 9 5 11 C4.01 11 3.02 11 2 11 C2 10.34 2 9.68 2 9 C-0.64 8.67 -3.28 8.34 -6 8 C-6.33 5.69 -6.66 3.38 -7 1 C-3.375 -1.125 -3.375 -1.125 0 0 Z " fill="#ECA844" transform="translate(207,157)"/>
<path d="M0 0 C0 0.99 0 1.98 0 3 C-0.99 3.33 -1.98 3.66 -3 4 C0.3 4.33 3.6 4.66 7 5 C7 5.33 7 5.66 7 6 C-1.01396246 6.6466598 -8.95787245 7.16677223 -17 7 C-16.67 6.34 -16.34 5.68 -16 5 C-14.68 5 -13.36 5 -12 5 C-12 4.34 -12 3.68 -12 3 C-12.99 2.67 -13.98 2.34 -15 2 C-9.77487721 0.53329887 -5.4185766 -0.22577402 0 0 Z " fill="#282D2E" transform="translate(291,109)"/>
<path d="M0 0 C1.093125 0.226875 2.18625 0.45375 3.3125 0.6875 C2.9825 2.6675 2.6525 4.6475 2.3125 6.6875 C1.343125 6.666875 0.37375 6.64625 -0.625 6.625 C-3.56215895 6.33131501 -3.56215895 6.33131501 -4.6875 7.6875 C-5.05510731 10.01567964 -5.38991581 12.3493385 -5.6875 14.6875 C-7.6675 14.0275 -9.6475 13.3675 -11.6875 12.6875 C-10.9243139 11.07968107 -10.15162942 9.47636862 -9.375 7.875 C-8.94574219 6.98167969 -8.51648438 6.08835937 -8.07421875 5.16796875 C-4.95049694 -0.41953364 -4.95049694 -0.41953364 0 0 Z " fill="#2B3136" transform="translate(326.6875,31.3125)"/>
<path d="M0 0 C-0.66 0.66 -1.32 1.32 -2 2 C-2.33 2.99 -2.66 3.98 -3 5 C-5.80855941 6.07612171 -8.48834858 6.95286914 -11.375 7.75 C-12.15617188 7.98332031 -12.93734375 8.21664062 -13.7421875 8.45703125 C-19.60195132 10.13268289 -19.60195132 10.13268289 -23 9 C-5.84671533 -1.94890511 -5.84671533 -1.94890511 0 0 Z " fill="#E4E5E1" transform="translate(162,244)"/>
<path d="M0 0 C2.31 0.66 4.62 1.32 7 2 C7.33 3.65 7.66 5.3 8 7 C8.66 6.67 9.32 6.34 10 6 C10.66 6.66 11.32 7.32 12 8 C5.94474232 9.38766322 2.67989374 8.49118146 -3 6 C-2.34 5.67 -1.68 5.34 -1 5 C-0.34444881 2.47266765 -0.34444881 2.47266765 0 0 Z " fill="#262D32" transform="translate(353,157)"/>
<path d="M0 0 C1.65 0 3.3 0 5 0 C0.53781818 5.41836363 -5.48345475 8.53076775 -12 11 C-12.99 10.67 -13.98 10.34 -15 10 C-13.68 9.67 -12.36 9.34 -11 9 C-10.855625 8.38125 -10.71125 7.7625 -10.5625 7.125 C-10 5 -10 5 -9 3 C-6.93734178 2.6088062 -4.90556733 2.49325481 -2.8125 2.34375 C-2.214375 2.2303125 -1.61625 2.116875 -1 2 C-0.67 1.34 -0.34 0.68 0 0 Z " fill="#E1AC4F" transform="translate(310,95)"/>
<path d="M0 0 C-2.29197379 2.67274899 -4.00205221 3.50967978 -7.4375 4.1875 C-8.19933594 4.34605469 -8.96117187 4.50460938 -9.74609375 4.66796875 C-12 5 -12 5 -16 5 C-16 5.66 -16 6.32 -16 7 C-18.58157368 7.53132389 -21.16461756 8.05034379 -23.75 8.5625 C-24.47960937 8.71396484 -25.20921875 8.86542969 -25.9609375 9.02148438 C-29.66557073 9.74557178 -32.39322322 10.09817231 -36 9 C-34.92621094 8.73445313 -33.85242188 8.46890625 -32.74609375 8.1953125 C-31.3098799 7.83860579 -29.87368288 7.48183134 -28.4375 7.125 C-27.73302734 6.95097656 -27.02855469 6.77695313 -26.30273438 6.59765625 C-17.28664168 4.52025606 -17.28664168 4.52025606 -8.875 0.8125 C-5.56349459 -0.93344935 -3.64307477 -1.36615304 0 0 Z " fill="#E09F4D" transform="translate(274,108)"/>
<path d="M0 0 C0.66 0.66 1.32 1.32 2 2 C1.01 2.66 0.02 3.32 -1 4 C0.32 4.66 1.64 5.32 3 6 C-7.19361228 14.13320129 -7.19361228 14.13320129 -13 16 C-13.99 15.67 -14.98 15.34 -16 15 C-9.375 11 -9.375 11 -6 11 C-6 10.34 -6 9.68 -6 9 C-6.66 9 -7.32 9 -8 9 C-8.33 8.01 -8.66 7.02 -9 6 C-7.68 6.33 -6.36 6.66 -5 7 C-5 7.66 -5 8.32 -5 9 C-4.34 9 -3.68 9 -3 9 C-3.7763932 5.9254644 -3.7763932 5.9254644 -6 4 C-4.02 2.68 -2.04 1.36 0 0 Z " fill="#2D2B2C" transform="translate(309,51)"/>
<path d="M0 0 C5.85757604 -0.47274258 8.69712704 0.59119248 13.4375 4 C14.48808594 4.7425 15.53867187 5.485 16.62109375 6.25 C17.40613281 6.8275 18.19117188 7.405 19 8 C17 9 17 9 15.22265625 8.546875 C14.50980469 8.28390625 13.79695313 8.0209375 13.0625 7.75 C7.77949231 5.88287839 2.41586306 4.4273583 -3 3 C-2.01 2.67 -1.02 2.34 0 2 C0 1.34 0 0.68 0 0 Z " fill="#D9D6C8" transform="translate(374,175)"/>
<path d="M0 0 C6.15234375 -0.09765625 6.15234375 -0.09765625 8 0 C8.33 0.33 8.66 0.66 9 1 C10.70772358 1.08713831 12.41898649 1.10700007 14.12890625 1.09765625 C15.16337891 1.09443359 16.19785156 1.09121094 17.26367188 1.08789062 C18.35228516 1.07951172 19.44089844 1.07113281 20.5625 1.0625 C21.65498047 1.05798828 22.74746094 1.05347656 23.87304688 1.04882812 C26.58208495 1.03699826 29.29101599 1.02051543 32 1 C25.57185345 5.28543103 16.46945853 4.53931108 9 4 C5.8118338 3.24571584 3.04655959 2.23927848 0 1 C0 0.67 0 0.34 0 0 Z " fill="#D37348" transform="translate(205,117)"/>
<path d="M0 0 C0.53625 0.226875 1.0725 0.45375 1.625 0.6875 C1.295 2.0075 0.965 3.3275 0.625 4.6875 C2.935 4.6875 5.245 4.6875 7.625 4.6875 C4.67316899 7.63933101 1.66988053 7.77413988 -2.375 8.6875 C-2.375 8.0275 -2.375 7.3675 -2.375 6.6875 C-3.035 6.3575 -3.695 6.0275 -4.375 5.6875 C-4.045 5.0275 -3.715 4.3675 -3.375 3.6875 C-4.365 4.0175 -5.355 4.3475 -6.375 4.6875 C-7.035 4.0275 -7.695 3.3675 -8.375 2.6875 C-2.95961538 -0.38942308 -2.95961538 -0.38942308 0 0 Z " fill="#4D4D4F" transform="translate(206.375,77.3125)"/>
<path d="M0 0 C10.55808656 0.77904328 10.55808656 0.77904328 15 3 C14.071875 3.1546875 14.071875 3.1546875 13.125 3.3125 C10.63473516 3.87525373 10.63473516 3.87525373 9 7 C9.99 7.33 10.98 7.66 12 8 C4.25 7.125 4.25 7.125 2 6 C2.33 4.68 2.66 3.36 3 2 C2.01 1.34 1.02 0.68 0 0 Z " fill="#21282D" transform="translate(369,178)"/>
<path d="M0 0 C6.61085476 0.48969295 11.94977014 2.33442742 18 5 C14.28272326 6.13583456 12.52948291 5.66670026 9 4 C8.67 4.99 8.34 5.98 8 7 C5.625 8.3125 5.625 8.3125 3 9 C2.01 8.34 1.02 7.68 0 7 C0.99 6.34 1.98 5.68 3 5 C2.67 4.34 2.34 3.68 2 3 C3.32 3 4.64 3 6 3 C4.02 2.34 2.04 1.68 0 1 C0 0.67 0 0.34 0 0 Z " fill="#7E8385" transform="translate(330,114)"/>
<path d="M0 0 C0.66 0.66 1.32 1.32 2 2 C1.64644564 4.26274788 1.02455574 5.95088852 0 8 C0 9.32 0 10.64 0 12 C-2.31 12 -4.62 12 -7 12 C-6.34 10.68 -5.68 9.36 -5 8 C-5.66 7.67 -6.32 7.34 -7 7 C-5.625 5.5 -5.625 5.5 -4 4 C-3.34 4 -2.68 4 -2 4 C-1.34 2.68 -0.68 1.36 0 0 Z " fill="#464B51" transform="translate(314,44)"/>
<path d="M0 0 C8.58 0 17.16 0 26 0 C26 0.33 26 0.66 26 1 C23.69 1.33 21.38 1.66 19 2 C19.33 3.32 19.66 4.64 20 6 C17.03 6 14.06 6 11 6 C11.99 5.01 12.98 4.02 14 3 C13.24074219 2.95101562 12.48148437 2.90203125 11.69921875 2.8515625 C10.70535156 2.77679688 9.71148437 2.70203125 8.6875 2.625 C7.70136719 2.55539063 6.71523438 2.48578125 5.69921875 2.4140625 C3 2 3 2 0 0 Z " fill="#363A3A" transform="translate(252,154)"/>
<path d="M0 0 C-2.85793316 2.85793316 -5.14665584 2.40799941 -9.125 2.625 C-10.40632812 2.69976562 -11.68765625 2.77453125 -13.0078125 2.8515625 C-13.99523437 2.90054688 -14.98265625 2.94953125 -16 3 C-15.85769192 4.41702513 -15.71099254 5.8336096 -15.5625 7.25 C-15.44068359 8.43335938 -15.44068359 8.43335938 -15.31640625 9.640625 C-14.89878137 12.87890597 -14.89878137 12.87890597 -14 16 C-13.01 16.33 -12.02 16.66 -11 17 C-11.66 17.66 -12.32 18.32 -13 19 C-17.26260555 12.81234678 -18.11992241 9.31526682 -18 2 C-11.93184478 0.77100654 -6.20104812 -0.27560214 0 0 Z " fill="#D7AC59" transform="translate(257,161)"/>
<path d="M0 0 C0.66 1.32 1.32 2.64 2 4 C3.32 4 4.64 4 6 4 C6 3.34 6 2.68 6 2 C12.93 1.01 12.93 1.01 20 0 C20 0.66 20 1.32 20 2 C20.99 2.66 21.98 3.32 23 4 C12.11 4.495 12.11 4.495 1 5 C0.67 3.35 0.34 1.7 0 0 Z " fill="#E7B45B" transform="translate(242,150)"/>
<path d="M0 0 C0.69287109 0.00451172 1.38574219 0.00902344 2.09960938 0.01367188 C3.79561068 0.02536844 5.49156703 0.04330076 7.1875 0.0625 C6.8125 2 6.8125 2 6.1875 4.0625 C3.42499964 5.44375018 1.24018901 5.25329306 -1.8125 5.0625 C-2.4725 4.4025 -3.1325 3.7425 -3.8125 3.0625 C-3.1525 2.7325 -2.4925 2.4025 -1.8125 2.0625 C-5.4425 2.0625 -9.0725 2.0625 -12.8125 2.0625 C-12.8125 1.7325 -12.8125 1.4025 -12.8125 1.0625 C-8.52952469 0.00630997 -4.38264354 -0.05452092 0 0 Z " fill="#20262A" transform="translate(272.8125,152.9375)"/>
<path d="M0 0 C3.375 -0.1875 3.375 -0.1875 7 0 C7.66 0.99 8.32 1.98 9 3 C8.34 4.32 7.68 5.64 7 7 C3.7 6.34 0.4 5.68 -3 5 C0 3 0 3 2 3 C2 2.34 2 1.68 2 1 C1.34 0.67 0.68 0.34 0 0 Z " fill="#2C3237" transform="translate(364,177)"/>
<path d="M0 0 C0.66 0.33 1.32 0.66 2 1 C1.34 1.66 0.68 2.32 0 3 C0.33 3.66 0.66 4.32 1 5 C1 5.99 1 6.98 1 8 C-0.32 7.67 -1.64 7.34 -3 7 C-2.67 7.33 -2.34 7.66 -2 8 C-6.31771166 9.43923722 -9.70050443 8.077156 -14 7 C-11.71296692 5.80274117 -9.42115138 4.61702982 -7.125 3.4375 C-6.14853516 2.92413086 -6.14853516 2.92413086 -5.15234375 2.40039062 C-3.46470143 1.53917109 -1.73420407 0.76313297 0 0 Z " fill="#75797A" transform="translate(305,52)"/>
<path d="M0 0 C0.33 0.66 0.66 1.32 1 2 C0.67 2.66 0.34 3.32 0 4 C-0.99 4.33 -1.98 4.66 -3 5 C-4.80597702 6.98571881 -6.43261827 9.0736672 -8.0859375 11.1875 C-10.36283293 13.34358057 -11.92772342 13.66215515 -15 14 C-10.55487173 8.41509524 -5.75545909 4.20788009 0 0 Z " fill="#717475" transform="translate(176,115)"/>
<path d="M0 0 C0.97608217 2.92824652 1.08226668 4.95613276 1 8 C-0.216875 7.773125 -1.43375 7.54625 -2.6875 7.3125 C-6.79690804 6.76892751 -8.54170338 7.69446892 -12 10 C-14.140625 9.59375 -14.140625 9.59375 -16 9 C-15.18015625 8.60167969 -14.3603125 8.20335938 -13.515625 7.79296875 C-12.43796875 7.26316406 -11.3603125 6.73335938 -10.25 6.1875 C-9.18265625 5.66542969 -8.1153125 5.14335938 -7.015625 4.60546875 C-4.44766758 3.2383308 -2.25529217 1.82284537 0 0 Z " fill="#2E2F2C" transform="translate(314,96)"/>
<path d="M0 0 C5.94 0.33 11.88 0.66 18 1 C16.02 1.99 16.02 1.99 14 3 C14.33 3.66 14.66 4.32 15 5 C11.7 5 8.4 5 5 5 C5.33 3.68 5.66 2.36 6 1 C4.02 1 2.04 1 0 1 C0 0.67 0 0.34 0 0 Z " fill="#32393D" transform="translate(274,152)"/>
<path d="M0 0 C0.66 0.66 1.32 1.32 2 2 C0.875 3.5 0.875 3.5 -1 5 C-4.0625 5.3125 -4.0625 5.3125 -7 5 C-7.66 4.34 -8.32 3.68 -9 3 C-8.67 2.01 -8.34 1.02 -8 0 C-5.06692502 -1.2136862 -2.95460646 -1.0833557 0 0 Z " fill="#212C33" transform="translate(236,72)"/>
<path d="M0 0 C0.99 0 1.98 0 3 0 C2.74501565 3.44228876 1.8118705 4.16359087 -0.875 6.5 C-1.41125 6.91636719 -1.9475 7.33273438 -2.5 7.76171875 C-4.3491496 9.28823027 -5.67393965 11.01090947 -7 13 C-7.3125 10.3125 -7.3125 10.3125 -7 7 C-4.625 4.25 -4.625 4.25 -2 2 C-1.34 1.34 -0.68 0.68 0 0 Z " fill="#302E32" transform="translate(201,84)"/>
<path d="M0 0 C-2.41196754 3.61795132 -3.82637388 3.95140931 -7.875 5.3125 C-8.92429688 5.67988281 -9.97359375 6.04726563 -11.0546875 6.42578125 C-14 7 -14 7 -16.3828125 6.10546875 C-16.91648438 5.74066406 -17.45015625 5.37585938 -18 5 C-15.37831689 3.96983978 -12.75326119 2.95061606 -10.125 1.9375 C-9.37863281 1.64294922 -8.63226563 1.34839844 -7.86328125 1.04492188 C-2.2265625 -1.11328125 -2.2265625 -1.11328125 0 0 Z " fill="#DEDFDC" transform="translate(212,394)"/>
<path d="M0 0 C0 4.03713348 -2.00646114 6.06624276 -4.375 9.125 C-4.7875 9.67542969 -5.2 10.22585938 -5.625 10.79296875 C-8.72442336 14.86221168 -8.72442336 14.86221168 -11 16 C-9.60176807 9.94099499 -6.06877748 5.55818232 -2 1 C-1.34 0.67 -0.68 0.34 0 0 Z " fill="#F2F1EE" transform="translate(266,349)"/>
<path d="M0 0 C0.33 0 0.66 0 1 0 C1.55353075 13.6332574 1.55353075 13.6332574 -2 20 C-2.66 19.67 -3.32 19.34 -4 19 C-2.02 9.595 -2.02 9.595 0 0 Z " fill="#D7D6D4" transform="translate(278,311)"/>
<path d="M0 0 C0.66 0 1.32 0 2 0 C4 3 4 3 3.625 5.1875 C3.41875 5.785625 3.2125 6.38375 3 7 C2.01 6.67 1.02 6.34 0 6 C-2.14255793 6.38932856 -2.14255793 6.38932856 -4 7 C-4.33 5.35 -4.66 3.7 -5 2 C-3.68 2 -2.36 2 -1 2 C-0.67 1.34 -0.34 0.68 0 0 Z " fill="#2A383F" transform="translate(223,143)"/>
<path d="M0 0 C2.64 0 5.28 0 8 0 C7.67 0.99 7.34 1.98 7 3 C10.63 3 14.26 3 18 3 C17.67 3.66 17.34 4.32 17 5 C10.01370081 5.50604984 5.79799884 5.0333905 0 1 C0 0.67 0 0.34 0 0 Z " fill="#D5A653" transform="translate(202,165)"/>
<path d="M0 0 C-0.33 1.65 -0.66 3.3 -1 5 C0.98 4.67 2.96 4.34 5 4 C1.79619983 6.13586678 0.98060033 6.23132175 -2.6875 6.125 C-3.89986328 6.09792969 -3.89986328 6.09792969 -5.13671875 6.0703125 C-6.05904297 6.03550781 -6.05904297 6.03550781 -7 6 C-6.67 4.35 -6.34 2.7 -6 1 C-3 0 -3 0 0 0 Z " fill="#24282F" transform="translate(214,76)"/>
<path d="M0 0 C2.97 1.32 5.94 2.64 9 4 C8.01 4.66 7.02 5.32 6 6 C5.01 5.67 4.02 5.34 3 5 C2.67 5.99 2.34 6.98 2 8 C0.68 7.67 -0.64 7.34 -2 7 C-2 6.34 -2 5.68 -2 5 C-1.34 4.67 -0.68 4.34 0 4 C0 2.68 0 1.36 0 0 Z " fill="#34393C" transform="translate(373,164)"/>
<path d="M0 0 C0.66 0.33 1.32 0.66 2 1 C2 7.93 2 14.86 2 22 C1.67 22 1.34 22 1 22 C0.96261719 21.19175781 0.92523438 20.38351563 0.88671875 19.55078125 C0.82097656 18.48214844 0.75523437 17.41351563 0.6875 16.3125 C0.62949219 15.25675781 0.57148438 14.20101562 0.51171875 13.11328125 C-0.03993133 9.75705899 -1.15872785 7.81867667 -3 5 C-3 4.34 -3 3.68 -3 3 C-2.34 3 -1.68 3 -1 3 C-0.67 2.01 -0.34 1.02 0 0 Z " fill="#2B2D27" transform="translate(231,136)"/>
<path d="M0 0 C2.75 -0.3125 2.75 -0.3125 6 0 C8.375 2.5 8.375 2.5 10 5 C9.67 5.66 9.34 6.32 9 7 C6.69 6.67 4.38 6.34 2 6 C1.67 5.01 1.34 4.02 1 3 C2.32 3 3.64 3 5 3 C5 2.34 5 1.68 5 1 C3.35 1 1.7 1 0 1 C0 0.67 0 0.34 0 0 Z " fill="#1E2427" transform="translate(325,31)"/>
<path d="M0 0 C-0.33 1.65 -0.66 3.3 -1 5 C-3.91482778 5.80967438 -5.46113217 6.21845993 -8.3125 5.0625 C-8.869375 4.711875 -9.42625 4.36125 -10 4 C-8.35 3.67 -6.7 3.34 -5 3 C-5.66 2.01 -6.32 1.02 -7 0 C-3.86650268 -1.04449911 -3.01031744 -0.93423645 0 0 Z " fill="#34393C" transform="translate(353,157)"/>
<path d="M0 0 C-0.57621094 0.25910156 -1.15242188 0.51820313 -1.74609375 0.78515625 C-4.17809787 2.09599382 -6.00712421 3.59597834 -8.0625 5.4375 C-9.06990234 6.33275391 -9.06990234 6.33275391 -10.09765625 7.24609375 C-11.7754479 8.79296942 -13.40159243 10.37171566 -15 12 C-14.36433385 6.66593186 -12.14170259 4.71018756 -8.14453125 1.3828125 C-5.32474243 -0.43541198 -3.27620952 -0.57333667 0 0 Z " fill="#ECECEA" transform="translate(262,193)"/>
<path d="M0 0 C0.80824219 0.10183594 1.61648438 0.20367187 2.44921875 0.30859375 C3.06410156 0.39238281 3.67898438 0.47617188 4.3125 0.5625 C2.53805028 2.80856427 1.72897515 3.51331002 -1.16796875 3.85546875 C-2.50794922 3.80326172 -2.50794922 3.80326172 -3.875 3.75 C-5.22658203 3.70939453 -5.22658203 3.70939453 -6.60546875 3.66796875 C-7.29253906 3.63316406 -7.97960937 3.59835938 -8.6875 3.5625 C-8.3575 2.5725 -8.0275 1.5825 -7.6875 0.5625 C-4.59271121 -0.46909626 -3.16118607 -0.41232862 0 0 Z " fill="#273238" transform="translate(262.6875,155.4375)"/>
<path d="M0 0 C2.97 0 5.94 0 9 0 C8.01 0.495 8.01 0.495 7 1 C7 2.32 7 3.64 7 5 C7.66 5.33 8.32 5.66 9 6 C4.83861737 6.08159574 1.0527516 5.98248524 -3 5 C-3 4.67 -3 4.34 -3 4 C-1.865625 3.87625 -0.73125 3.7525 0.4375 3.625 C1.613125 3.41875 2.78875 3.2125 4 3 C4.33 2.34 4.66 1.68 5 1 C4.01 1.33 3.02 1.66 2 2 C1.34 1.34 0.68 0.68 0 0 Z " fill="#21272C" transform="translate(305,111)"/>
<path d="M0 0 C0.99 0.99 1.98 1.98 3 3 C3.33 2.34 3.66 1.68 4 1 C4.99 1 5.98 1 7 1 C5.89131683 3.21736634 4.50559539 5.03617993 3 7 C2.34 6.67 1.68 6.34 1 6 C0.34 7.32 -0.32 8.64 -1 10 C-2.46726798 6.18510326 -1.43336419 3.70988378 0 0 Z " fill="#2D3335" transform="translate(328,73)"/>
<path d="M0 0 C0.66 1.32 1.32 2.64 2 4 C0.02 6.31 -1.96 8.62 -4 11 C-5 7 -5 7 -3.6875 4.375 C-2 2 -2 2 0 0 Z " fill="#E0DFDC" transform="translate(180,365)"/>
<path d="M0 0 C-0.66 2.31 -1.32 4.62 -2 7 C-3.32 7 -4.64 7 -6 7 C-6.33 5.02 -6.66 3.04 -7 1 C-4.50935112 0.31292445 -2.62113708 0 0 0 Z " fill="#2B343A" transform="translate(284,63)"/>
<path d="M0 0 C1.8125 0.9375 1.8125 0.9375 3.0625 3.5 C3.31 4.304375 3.5575 5.10875 3.8125 5.9375 C1.8325 6.2675 -0.1475 6.5975 -2.1875 6.9375 C-1.8575 5.2875 -1.5275 3.6375 -1.1875 1.9375 C-2.1775 1.9375 -3.1675 1.9375 -4.1875 1.9375 C-4.5175 2.5975 -4.8475 3.2575 -5.1875 3.9375 C-5.8475 3.2775 -6.5075 2.6175 -7.1875 1.9375 C-4.68448229 0.75551941 -2.79148817 -0.0797568 0 0 Z " fill="#555D62" transform="translate(215.1875,74.0625)"/>
<path d="M0 0 C0 0.66 0 1.32 0 2 C-1.65 2.33 -3.3 2.66 -5 3 C-4.01 4.485 -4.01 4.485 -3 6 C-4.32 6.33 -5.64 6.66 -7 7 C-7 5.68 -7 4.36 -7 3 C-7.99 3.33 -8.98 3.66 -10 4 C-11.39439664 4.06665376 -12.79169875 4.08538199 -14.1875 4.0625 C-16.0746875 4.0315625 -16.0746875 4.0315625 -18 4 C-18 3.67 -18 3.34 -18 3 C-15.56318413 2.49645133 -13.12564561 1.99703244 -10.6875 1.5 C-9.99720703 1.35691406 -9.30691406 1.21382813 -8.59570312 1.06640625 C-5.67475227 0.47374956 -2.98891878 0 0 0 Z " fill="#3E3028" transform="translate(245,117)"/>
<path d="M0 0 C0.75 1.5625 0.75 1.5625 1 4 C-0.13084437 6.50286409 -1.52139516 8.67007722 -3 11 C-3.33 10.01 -3.66 9.02 -4 8 C-4.99 8.495 -4.99 8.495 -6 9 C-6 7.68 -6 6.36 -6 5 C-5.34 5 -4.68 5 -4 5 C-2.95374591 3.70264493 -1.95298777 2.36733028 -1 1 C-0.67 0.67 -0.34 0.34 0 0 Z " fill="#828586" transform="translate(335,74)"/>
<path d="M0 0 C0.66 0.33 1.32 0.66 2 1 C1.04801289 2.64951226 0.08820855 4.29451508 -0.875 5.9375 C-1.40867187 6.85402344 -1.94234375 7.77054687 -2.4921875 8.71484375 C-4 11 -4 11 -6 12 C-6.33 10.35 -6.66 8.7 -7 7 C-5.47005208 5.76302083 -3.94010417 4.52604167 -2.41015625 3.2890625 C-0.86733563 2.0333609 -0.86733563 2.0333609 0 0 Z " fill="#D8AA51" transform="translate(323,81)"/>
<path d="M0 0 C2.00047023 2.54605302 3.82572785 4.9664636 5 8 C4.67 8.99 4.34 9.98 4 11 C2.02 9.35 0.04 7.7 -2 6 C-1.34 4.02 -0.68 2.04 0 0 Z " fill="#DDDCD4" transform="translate(395,170)"/>
<path d="M0 0 C0 0.33 0 0.66 0 1 C-5.94 1.495 -5.94 1.495 -12 2 C-12 1.67 -12 1.34 -12 1 C-13.65 0.67 -15.3 0.34 -17 0 C-17 -0.33 -17 -0.66 -17 -1 C-15.10590022 -1.22354607 -13.2095652 -1.42819951 -11.3125 -1.625 C-9.72888672 -1.79902344 -9.72888672 -1.79902344 -8.11328125 -1.9765625 C-4.86283654 -2.0010326 -2.89769204 -1.40852563 0 0 Z " fill="#222724" transform="translate(268,117)"/>
<path d="M0 0 C0.33 0.66 0.66 1.32 1 2 C0.22265625 4.1640625 0.22265625 4.1640625 -0.9375 6.625 C-1.31777344 7.44226563 -1.69804687 8.25953125 -2.08984375 9.1015625 C-2.39019531 9.72804688 -2.69054687 10.35453125 -3 11 C-3.33 11 -3.66 11 -4 11 C-4.8125 7.75 -4.8125 7.75 -5 4 C-2.5625 1.5625 -2.5625 1.5625 0 0 Z " fill="#E1763C" transform="translate(310,58)"/>
<path d="M0 0 C-1 3 -1 3 -3.1875 4.1875 C-6.25390311 5.07334979 -8.82438155 5.14770318 -12 5 C-8.25 3 -8.25 3 -6 3 C-6 2.01 -6 1.02 -6 0 C-3.50907189 -1.24546405 -2.58919267 -0.7767578 0 0 Z " fill="#384045" transform="translate(367,177)"/>
<path d="M0 0 C1.89492188 0.01353516 1.89492188 0.01353516 3.828125 0.02734375 C4.79234375 0.03894531 5.7565625 0.05054688 6.75 0.0625 C6.75 0.3925 6.75 0.7225 6.75 1.0625 C3.12 1.0625 -0.51 1.0625 -4.25 1.0625 C-4.25 1.7225 -4.25 2.3825 -4.25 3.0625 C-6.56 3.0625 -8.87 3.0625 -11.25 3.0625 C-11.25 2.4025 -11.25 1.7425 -11.25 1.0625 C-7.49600202 -0.1414337 -3.91782588 -0.03627617 0 0 Z " fill="#191E23" transform="translate(317.25,173.9375)"/>
<path d="M0 0 C0.33 0 0.66 0 1 0 C1.33 1.65 1.66 3.3 2 5 C2.66 4.67 3.32 4.34 4 4 C4 5.65 4 7.3 4 9 C3.34 9 2.68 9 2 9 C2.99 10.485 2.99 10.485 4 12 C3.67 12.99 3.34 13.98 3 15 C0.31780178 9.63560356 -0.3152595 5.98993047 0 0 Z " fill="#D47446" transform="translate(194,97)"/>
<path d="M0 0 C0.66 0 1.32 0 2 0 C2 0.99 2 1.98 2 3 C2.99 3.33 3.98 3.66 5 4 C4.34 5.32 3.68 6.64 3 8 C2.01 7.67 1.02 7.34 0 7 C-1.1875 4.4375 -1.1875 4.4375 -2 2 C-1.34 1.34 -0.68 0.68 0 0 Z " fill="#ECA73F" transform="translate(202,140)"/>
<path d="M0 0 C0.66 0.33 1.32 0.66 2 1 C-0.625 4.875 -0.625 4.875 -4 6 C-5.01187895 7.65948148 -6.0126546 9.32580562 -7 11 C-7.66 11 -8.32 11 -9 11 C-7.59928507 5.70841026 -4.14512755 3.22521956 0 0 Z " fill="#D87647" transform="translate(204,86)"/>
<path d="M0 0 C0.99 0.33 1.98 0.66 3 1 C3 3.31 3 5.62 3 8 C1.02 7.34 -0.96 6.68 -3 6 C-2.01 4.02 -1.02 2.04 0 0 Z " fill="#484D51" transform="translate(318,38)"/>
<path d="M0 0 C0.99 0.66 1.98 1.32 3 2 C2.8125 4.375 2.8125 4.375 2 7 C-0.5625 8.3125 -0.5625 8.3125 -3 9 C-2.44271087 5.65626525 -1.64826111 2.96687001 0 0 Z " fill="#767A7C" transform="translate(114,277)"/>
<path d="M0 0 C1.051875 -0.02126953 1.051875 -0.02126953 2.125 -0.04296875 C4 0.1875 4 0.1875 6 2.1875 C2.37 2.5175 -1.26 2.8475 -5 3.1875 C-5.33 2.5275 -5.66 1.8675 -6 1.1875 C-3.77109005 0.07304502 -2.46944894 0.02269714 0 0 Z " fill="#EEA940" transform="translate(214,134.8125)"/>
<path d="M0 0 C1.65 0.33 3.3 0.66 5 1 C4.67 2.98 4.34 4.96 4 7 C2.35 7 0.7 7 -1 7 C-1 4 -1 4 1 2 C0.67 1.34 0.34 0.68 0 0 Z " fill="#333C43" transform="translate(289,60)"/>
<path d="M0 0 C1.0625 1.8125 1.0625 1.8125 2 4 C1.67 4.99 1.34 5.98 1 7 C0.34 7 -0.32 7 -1 7 C-1.12375 7.969375 -1.2475 8.93875 -1.375 9.9375 C-1.58125 10.948125 -1.7875 11.95875 -2 13 C-2.99 13.495 -2.99 13.495 -4 14 C-3.71715982 12.22773547 -3.42339502 10.457212 -3.125 8.6875 C-2.96257812 7.70136719 -2.80015625 6.71523438 -2.6328125 5.69921875 C-2 3 -2 3 0 0 Z " fill="#32312B" transform="translate(333,56)"/>
<path d="M0 0 C1.9375 0.6875 1.9375 0.6875 4 2 C4.75 4.625 4.75 4.625 5 7 C3.02 8.32 1.04 9.64 -1 11 C-1.33 9.68 -1.66 8.36 -2 7 C-0.35 7 1.3 7 3 7 C2.38722388 4.03824877 1.74627478 2.61941217 0 0 Z " fill="#656765" transform="translate(331,31)"/>
<path d="M0 0 C0 0.99 0 1.98 0 3 C-4.62 3 -9.24 3 -14 3 C-14 2.67 -14 2.34 -14 2 C-12.22978678 1.663389 -10.45880326 1.33082707 -8.6875 1 C-7.70136719 0.814375 -6.71523437 0.62875 -5.69921875 0.4375 C-3 0 -3 0 0 0 Z " fill="#E1E1DF" transform="translate(182,403)"/>
<path d="M0 0 C2.31 0.33 4.62 0.66 7 1 C6.67 1.99 6.34 2.98 6 4 C5.01 4 4.02 4 3 4 C3 4.66 3 5.32 3 6 C1.68 5.67 0.36 5.34 -1 5 C-0.34 5 0.32 5 1 5 C0.67 3.35 0.34 1.7 0 0 Z " fill="#222B32" transform="translate(287,178)"/>
<path d="M0 0 C-0.66 1.32 -1.32 2.64 -2 4 C-2 3.34 -2 2.68 -2 2 C-2.825 2.165 -3.65 2.33 -4.5 2.5 C-8.41272317 3.05896045 -12.05183173 3.06807187 -16 3 C-13.09822819 1.37395019 -10.74344034 0.67706561 -7.4375 0.375 C-6.29087891 0.26285156 -6.29087891 0.26285156 -5.12109375 0.1484375 C-3.41751205 0.02921815 -1.70774819 0 0 0 Z " fill="#CA7045" transform="translate(241,77)"/>
<path d="M0 0 C1.60226148 4.00565371 0.47694566 7.08609399 -1 11 C-1.99 11.33 -2.98 11.66 -4 12 C-2 3.42857143 -2 3.42857143 0 0 Z " fill="#8A8D8E" transform="translate(119,265)"/>
<path d="M0 0 C4.95 0 9.9 0 15 0 C15 0.33 15 0.66 15 1 C11.04 1 7.08 1 3 1 C3 1.66 3 2.32 3 3 C1.68 3.33 0.36 3.66 -1 4 C-1.33 3.34 -1.66 2.68 -2 2 C-1.34 2 -0.68 2 0 2 C0 1.34 0 0.68 0 0 Z " fill="#2C353C" transform="translate(307,153)"/>
<path d="M0 0 C-1 1.5 -1 1.5 -3 3 C-7.57409061 3.36302306 -11.06393081 3.62404613 -15 1 C-9.92928099 0.28832014 -5.11791642 -0.10662326 0 0 Z " fill="#D1AB5F" transform="translate(277,117)"/>
<path d="M0 0 C3.63 0.33 7.26 0.66 11 1 C10.01 2.485 10.01 2.485 9 4 C6.03 3.67 3.06 3.34 0 3 C0 2.01 0 1.02 0 0 Z " fill="#323636" transform="translate(249,116)"/>
<path d="M0 0 C4.95 0 9.9 0 15 0 C15 0.33 15 0.66 15 1 C9.72 1.66 4.44 2.32 -1 3 C-0.67 2.01 -0.34 1.02 0 0 Z " fill="#3E302E" transform="translate(223,77)"/>
<path d="M0 0 C0.99 0.495 0.99 0.495 2 1 C3.37634409 7.99641577 3.37634409 7.99641577 2.0625 11.5 C1.711875 11.995 1.36125 12.49 1 13 C0.1276588 10.00519083 -0.10829766 7.36424089 -0.0625 4.25 C-0.05347656 3.45078125 -0.04445312 2.6515625 -0.03515625 1.828125 C-0.02355469 1.22484375 -0.01195312 0.6215625 0 0 Z " fill="#272823" transform="translate(226,144)"/>
<path d="M0 0 C0.33 0.66 0.66 1.32 1 2 C-0.125 4.5625 -0.125 4.5625 -2 7 C-4.6875 7.8125 -4.6875 7.8125 -7 8 C-6.02133662 6.85373678 -5.04205413 5.70800212 -4.0625 4.5625 C-3.51722656 3.92441406 -2.97195312 3.28632813 -2.41015625 2.62890625 C-1.63204305 1.73008851 -0.84063472 0.84063472 0 0 Z " fill="#DCDCDB" transform="translate(255,361)"/>
<path d="M0 0 C0 0.66 0 1.32 0 2 C-3.3 2.66 -6.6 3.32 -10 4 C-4.75 -1.425 -4.75 -1.425 0 0 Z " fill="#DBDCDC" transform="translate(149,250)"/>
<path d="M0 0 C0.99 0.33 1.98 0.66 3 1 C3 4.63 3 8.26 3 12 C0.8008587 7.60171741 0.48144941 4.81449408 0 0 Z " fill="#D5D5D3" transform="translate(276,266)"/>
<path d="M0 0 C0 0.33 0 0.66 0 1 C-5.5415502 2.96263236 -9.20858017 3.01603857 -15 2 C-15 1.67 -15 1.34 -15 1 C-10.03926578 -0.32286246 -5.08888488 -0.08893197 0 0 Z " fill="#D0774C" transform="translate(260,75)"/>
<path d="M0 0 C0.66 0.33 1.32 0.66 2 1 C1.34 1.66 0.68 2.32 0 3 C0.33 3.66 0.66 4.32 1 5 C1 5.99 1 6.98 1 8 C-0.32 7.67 -1.64 7.34 -3 7 C-3.1875 4.625 -3.1875 4.625 -3 2 C-2.01 1.34 -1.02 0.68 0 0 Z " fill="#585E61" transform="translate(305,52)"/>
<path d="M0 0 C3.99455527 0.61454696 6.74466336 2.70646737 10 5 C8 6 8 6 5.8359375 5.44140625 C5.02382813 5.15136719 4.21171875 4.86132812 3.375 4.5625 C2.55773437 4.27503906 1.74046875 3.98757812 0.8984375 3.69140625 C0.27195312 3.46324219 -0.35453125 3.23507813 -1 3 C-0.67 2.01 -0.34 1.02 0 0 Z " fill="#C4C5C2" transform="translate(383,178)"/>
<path d="M0 0 C0.66 0 1.32 0 2 0 C2.33 1.32 2.66 2.64 3 4 C1.35 4.66 -0.3 5.32 -2 6 C-2 3 -2 3 0 0 Z " fill="#242B32" transform="translate(371,164)"/>
<path d="M0 0 C0.33 0 0.66 0 1 0 C1.33 3.63 1.66 7.26 2 11 C1.01 11.33 0.02 11.66 -1 12 C-0.67 8.04 -0.34 4.08 0 0 Z " fill="#343A3E" transform="translate(336,55)"/>
<path d="M0 0 C0.99 0.33 1.98 0.66 3 1 C2.34 2.65 1.68 4.3 1 6 C-0.32 5.67 -1.64 5.34 -3 5 C-2 2 -2 2 0 0 Z " fill="#20292D" transform="translate(391,184)"/>
<path d="M0 0 C4.95 0.99 4.95 0.99 10 2 C10 2.33 10 2.66 10 3 C7.03 3 4.06 3 1 3 C0.67 2.01 0.34 1.02 0 0 Z " fill="#DBDAD8" transform="translate(370,184)"/>
<path d="M0 0 C2.15377564 2.62198774 3.40072174 4.64404172 4 8 C3.01 8 2.02 8 1 8 C-0.35439668 5.29120665 -0.06501451 2.99066732 0 0 Z " fill="#34383D" transform="translate(401,167)"/>
<path d="M0 0 C1.89213369 2.38573379 3.02391783 4.07175348 4 7 C3.01 7.33 2.02 7.66 1 8 C0.87625 7.360625 0.7525 6.72125 0.625 6.0625 C0.315625 5.0415625 0.315625 5.0415625 0 4 C-0.66 3.67 -1.32 3.34 -2 3 C-2 2.34 -2 1.68 -2 1 C-1.34 0.67 -0.68 0.34 0 0 Z " fill="#35342B" transform="translate(196,156)"/>
<path d="M0 0 C0.28875 0.639375 0.5775 1.27875 0.875 1.9375 C1.82823451 4.15206079 1.82823451 4.15206079 4 5 C3.67 7.31 3.34 9.62 3 12 C0.13700494 9.13700494 0.00578775 7.34147716 -0.0625 3.3125 C-0.041875 2.219375 -0.02125 1.12625 0 0 Z " fill="#342F27" transform="translate(206,146)"/>
<path d="M0 0 C-0.99 0.495 -0.99 0.495 -2 1 C-2 1.66 -2 2.32 -2 3 C-4.97 2.67 -7.94 2.34 -11 2 C-11 1.67 -11 1.34 -11 1 C-7.26562152 0.12132271 -3.83225427 -0.08912219 0 0 Z " fill="#1F272A" transform="translate(258,68)"/>
<path d="M0 0 C-5.57313913 2.78656957 -7.76917417 2.90447472 -14 2 C-14 1.67 -14 1.34 -14 1 C-9.23692563 0.04738513 -4.8333472 -0.08333357 0 0 Z " fill="#A0A0A1" transform="translate(272,65)"/>
<path d="M0 0 C0.66 0.33 1.32 0.66 2 1 C1.67 2.32 1.34 3.64 1 5 C-0.65 5.33 -2.3 5.66 -4 6 C-2.84826645 3.53199953 -1.95216435 1.95216435 0 0 Z " fill="#68686D" transform="translate(323,31)"/>
<path d="M0 0 C0.33 0.66 0.66 1.32 1 2 C1.99 2.66 2.98 3.32 4 4 C1.36 4 -1.28 4 -4 4 C-4 3.01 -4 2.02 -4 1 C-2.68 0.67 -1.36 0.34 0 0 Z " fill="#C9A55B" transform="translate(261,150)"/>
<path d="M0 0 C1.32 0.33 2.64 0.66 4 1 C4 2.32 4 3.64 4 5 C2.68 4.67 1.36 4.34 0 4 C0 2.68 0 1.36 0 0 Z " fill="#B9CFD1" transform="translate(218,145)"/>
<path d="M0 0 C2.64752004 2.57784846 4.94432065 4.91648098 7 8 C4.04590299 6.62845496 1.55991624 5.01136276 -1 3 C-0.67 2.01 -0.34 1.02 0 0 Z " fill="#3B2E2C" transform="translate(194,108)"/>
<path d="M0 0 C0.33 0.99 0.66 1.98 1 3 C0.67 3.66 0.34 4.32 0 5 C-2.64 4.67 -5.28 4.34 -8 4 C-8 3.67 -8 3.34 -8 3 C-6.865625 2.690625 -5.73125 2.38125 -4.5625 2.0625 C-1.21224901 1.37075469 -1.21224901 1.37075469 0 0 Z " fill="#D1D0CF" transform="translate(408,191)"/>
<path d="M0 0 C2.3431213 0.25561323 4.67843403 0.59270772 7 1 C7.33 1.66 7.66 2.32 8 3 C6.02 3.33 4.04 3.66 2 4 C2 3.01 2 2.02 2 1 C1.34 0.67 0.68 0.34 0 0 Z " fill="#D19E4A" transform="translate(269,178)"/>
<path d="M0 0 C1.32 0.33 2.64 0.66 4 1 C4 1.66 4 2.32 4 3 C1.69 3.33 -0.62 3.66 -3 4 C-2.01 2.68 -1.02 1.36 0 0 Z " fill="#323A3F" transform="translate(338,154)"/>
<path d="M0 0 C0.99 0.33 1.98 0.66 3 1 C0.63707344 3.52588702 -0.66462511 4.88820837 -4 6 C-3.6875 4.125 -3.6875 4.125 -3 2 C-2.01 1.34 -1.02 0.68 0 0 Z " fill="#212A2F" transform="translate(198,81)"/>
<path d="M0 0 C2.475 0.495 2.475 0.495 5 1 C4.67 1.99 4.34 2.98 4 4 C2.68 4 1.36 4 0 4 C0 2.68 0 1.36 0 0 Z " fill="#283138" transform="translate(330,34)"/>
</svg>
